<?xml version="1.0" standalone="no"?>
<!DOCTYPE svg PUBLIC "-//W3C//DTD SVG 1.1//EN" "http://www.w3.org/Graphics/SVG/1.1/DTD/svg11.dtd" >
<svg xmlns="http://www.w3.org/2000/svg" xmlns:xlink="http://www.w3.org/1999/xlink" version="1.1">
<metadata>
Created by FontForge 20200314 at Mon Jan  4 04:12:17 1999
 By www-data
Copyright 1990-1999 Bitstream Inc.  All rights reserved.
</metadata>
<defs>
<font id="036-CAI978" horiz-adv-x="1024" >
  <font-face 
    font-family="036-CAI978"
    font-weight="400"
    font-style="italic"
    font-stretch="normal"
    units-per-em="2048"
    panose-1="2 11 9 7 3 5 9 3 8 4"
    ascent="1556"
    descent="-492"
    x-height="1042"
    cap-height="1356"
    bbox="-342 -541 2574 1954"
    underline-thickness="276"
    underline-position="-374"
    slope="-3"
    unicode-range="U+0020-F002"
  />
<missing-glyph horiz-adv-x="1229" 
d="M102 -362v1806h1024v-1806h-1024zM217 -248h795v1577h-795v-1577z" />
    <glyph glyph-name=".notdef" horiz-adv-x="1229" 
d="M102 -362v1806h1024v-1806h-1024zM217 -248h795v1577h-795v-1577z" />
    <glyph glyph-name=".null" horiz-adv-x="0" 
 />
    <glyph glyph-name="nonmarkingreturn" horiz-adv-x="641" 
 />
    <glyph glyph-name="space" unicode=" " horiz-adv-x="641" 
 />
    <glyph glyph-name="exclam" unicode="!" horiz-adv-x="739" 
d="M172 461l6 431q1 41 1.5 91.5t0.5 159.5q0 84 -0.5 128.5t-1.5 83.5l463 1q-18 -151 -32 -285.5t-21 -238.5l-23 -371h-393zM127 0l18 365h437l-21 -365h-434z" />
    <glyph glyph-name="quotedbl" unicode="&#x22;" horiz-adv-x="713" 
d="M416 1438h223v-561h-223v561zM76 1438h219v-561h-219v561z" />
    <glyph glyph-name="numbersign" unicode="#" horiz-adv-x="1575" 
d="M707 842l-82 -232h245l82 232h-245zM684 1466h250l-139 -393h235l141 393h250l-139 -393h270l-86 -231h-268l-80 -230h277l-84 -231h-275l-141 -393h-250l139 393h-235l-141 -393h-250l139 393h-274l86 231h270l82 230h-283l86 231h279z" />
    <glyph glyph-name="dollar" unicode="$" horiz-adv-x="1280" 
d="M475 -14l4 96q-68 3 -131.5 14t-128.5 31l-33 293q110 -23 178 -33t113 -10q64 0 95.5 17.5t31.5 51.5q0 42 -104 128q-35 29 -55 46q-138 121 -176 184.5t-38 139.5q0 119 75 200.5t214 112.5l4 99h279v-96q59 -10 113 -25t106 -37l35 -280q-131 47 -192.5 63t-102.5 16
q-35 0 -58.5 -21t-23.5 -52q0 -52 120 -146q29 -23 45 -36q139 -114 183.5 -183t44.5 -147q0 -111 -80.5 -194.5t-230.5 -127.5l-4 -104h-283z" />
    <glyph glyph-name="percent" unicode="%" horiz-adv-x="1839" 
d="M567 1012q0 83 -25 124.5t-75 41.5q-66 0 -105.5 -67t-39.5 -179q0 -83 25.5 -124.5t76.5 -41.5q65 0 104 66.5t39 179.5zM1520 434q0 83 -25 124.5t-76 41.5q-65 0 -104 -66.5t-39 -179.5q0 -83 25 -124.5t75 -41.5q66 0 105 66.5t39 179.5zM414 559q-160 0 -247 102.5
t-87 290.5q0 200 101 316t274 116q167 0 260.5 -94.5t93.5 -263.5q0 -219 -105.5 -343t-289.5 -124zM672 -14h-213l702 1398h217zM1366 -18q-160 0 -247 102t-87 291q0 200 101 316t274 116q167 0 261.5 -95t94.5 -263q0 -219 -106 -343t-291 -124z" />
    <glyph glyph-name="ampersand" unicode="&#x26;" horiz-adv-x="1507" 
d="M801 297l-242 326q-71 -30 -103 -73.5t-32 -111.5q0 -85 55 -139.5t144 -54.5q46 0 90.5 13t87.5 40zM1018 0l-51 68q-80 -51 -177 -76t-219 -25q-242 0 -385 121t-143 324q0 157 93.5 276t266.5 182q-29 58 -44 108.5t-15 94.5q0 146 121.5 228.5t337.5 82.5
q66 0 141.5 -9t163.5 -27l27 -310q-74 22 -134 32.5t-106 10.5q-65 0 -99 -25t-34 -73q0 -38 33.5 -100t109.5 -166l133 -182q20 46 29.5 87t9.5 80h314q0 -129 -33 -239.5t-101 -206.5l189 -256h-428z" />
    <glyph glyph-name="quotesingle" unicode="'" horiz-adv-x="371" 
d="M76 1438h219v-561h-219v561z" />
    <glyph glyph-name="parenleft" unicode="(" horiz-adv-x="725" 
d="M645 1409q-66 -230 -99.5 -475t-33.5 -496q0 -198 15.5 -393t45.5 -387h-333q-52 206 -77.5 396.5t-25.5 369.5q0 237 44 487t130 498h334z" />
    <glyph glyph-name="parenright" unicode=")" horiz-adv-x="725" 
d="M72 -342q66 230 99.5 475t33.5 496q0 198 -15.5 393t-46.5 387h332q52 -214 78.5 -405t26.5 -361q0 -238 -45 -487t-132 -498h-331z" />
    <glyph glyph-name="asterisk" unicode="*" horiz-adv-x="1151" 
d="M604 844l-164 -213l-176 149l178 164l-239 88l102 213l199 -112l-4 223h231l-20 -223l215 108l86 -227l-238 -70l168 -178l-180 -135z" />
    <glyph glyph-name="plus" unicode="+" horiz-adv-x="1706" 
d="M735 1221h238v-494h479v-231h-479v-496h-238v496h-481v231h481v494z" />
    <glyph glyph-name="comma" unicode="," horiz-adv-x="639" 
d="M154 287h442l-311 -539h-314z" />
    <glyph glyph-name="hyphen" unicode="-" horiz-adv-x="692" 
d="M594 385h-488l19 303h487z" />
    <glyph glyph-name="period" unicode="." horiz-adv-x="639" 
d="M135 389h389l-18 -389h-391z" />
    <glyph glyph-name="slash" unicode="/" horiz-adv-x="590" 
d="M158 -190h-215l450 1546h215z" />
    <glyph glyph-name="zero" unicode="0" horiz-adv-x="1280" 
d="M662 1042q-79 0 -123.5 -111t-44.5 -308q0 -163 30.5 -237.5t96.5 -74.5q80 0 122.5 116t42.5 335q0 143 -30.5 211.5t-93.5 68.5zM606 -29q-260 0 -400 168t-140 479q0 357 158.5 561.5t434.5 204.5q271 0 414.5 -165t143.5 -478q0 -361 -162.5 -565.5t-448.5 -204.5z
" />
    <glyph glyph-name="one" unicode="1" horiz-adv-x="1280" 
d="M923 1356q-9 -124 -17 -251t-15 -267l-19 -363q-2 -47 -10 -276q-3 -124 -6 -199h-428q11 142 17 234.5t8 132.5l28 626l-254 -155l25 370l250 148h421z" />
    <glyph glyph-name="two" unicode="2" horiz-adv-x="1280" 
d="M1114 0h-1083l20 334q307 206 494.5 393t187.5 274q0 47 -46 70t-138 23q-75 0 -183 -19t-243 -55l55 315q145 25 272 37t232 12q246 0 376 -90t130 -260q0 -141 -143 -315.5t-459 -419.5h540z" />
    <glyph glyph-name="three" unicode="3" horiz-adv-x="1280" 
d="M68 39l-13 344q152 -53 259.5 -76.5t191.5 -23.5q105 0 163 40t58 113q0 69 -62 102t-190 33q-38 0 -193 -11q-27 -2 -40 -3l12 317q53 -5 94.5 -7.5t75.5 -2.5q134 0 197 31.5t63 97.5q0 57 -41 80t-149 23q-115 0 -203.5 -15t-169.5 -47l63 320q122 17 230.5 26
t203.5 9q291 0 428.5 -77t137.5 -239q0 -144 -97.5 -232t-293.5 -122q203 -16 299 -92t96 -221q0 -205 -179 -319t-505 -114q-118 0 -226 16.5t-210 49.5z" />
    <glyph glyph-name="four" unicode="4" horiz-adv-x="1280" 
d="M647 639l21 432q-45 -101 -111 -207t-158 -225h248zM1030 1356l-37 -717h240l-16 -291h-238l-18 -348h-377l18 348h-555l19 371q84 100 185 242t267 395h512z" />
    <glyph glyph-name="five" unicode="5" horiz-adv-x="1280" 
d="M115 27l-37 352q125 -54 223 -79.5t178 -25.5q104 0 161.5 43t57.5 119q0 87 -71.5 124.5t-245.5 37.5q-75 0 -150 -9t-151 -28l65 795h1026l-14 -291h-598l-12 -211q14 1 47.5 4.5t52.5 3.5q276 0 417.5 -100.5t141.5 -296.5q0 -233 -181 -364.5t-505 -131.5
q-84 0 -184 14t-221 44z" />
    <glyph glyph-name="six" unicode="6" horiz-adv-x="1280" 
d="M477 1356h496q-267 -295 -399 -513t-132 -366q0 -95 48 -145.5t139 -50.5q87 0 133.5 45t46.5 129q0 89 -48 130.5t-151 41.5q-22 0 -33.5 -0.5t-21.5 -1.5l139 264q8 0 24.5 1t24.5 1q235 0 355.5 -100t120.5 -295q0 -251 -157 -388t-444 -137q-271 0 -420 128t-149 360
q0 187 100 398.5t328 498.5z" />
    <glyph glyph-name="seven" unicode="7" horiz-adv-x="1280" 
d="M1133 1356v-334l-519 -1022h-479l559 1063h-18q-227 4 -336 4q-40 0 -100 -3t-142 -9l19 301h1016z" />
    <glyph glyph-name="eight" unicode="8" horiz-adv-x="1280" 
d="M319 707q-102 54 -146 122.5t-44 171.5q0 175 146.5 280t394.5 105q249 0 385.5 -97t136.5 -273q0 -108 -55 -185.5t-162 -123.5q116 -34 177.5 -111.5t61.5 -189.5q0 -207 -158 -321t-448 -114q-270 0 -418.5 105.5t-148.5 296.5q0 121 71.5 206.5t206.5 127.5zM440 428
q0 -77 47 -116.5t140 -39.5q89 0 139.5 40t50.5 110q0 76 -47 114.5t-141 38.5q-90 0 -139.5 -38.5t-49.5 -108.5zM500 991q0 -64 40 -95.5t122 -31.5q88 0 130 33.5t42 103.5q0 59 -43.5 90t-124.5 31q-78 0 -122 -35t-44 -96z" />
    <glyph glyph-name="nine" unicode="9" horiz-adv-x="1280" 
d="M797 0h-496q267 295 398.5 513t131.5 366q0 93 -48 144.5t-136 51.5q-87 0 -134.5 -45.5t-47.5 -128.5q0 -90 47 -131t150 -41q22 0 33.5 0.5t20.5 1.5l-136 -264q-9 0 -25 -1t-25 -1q-234 0 -354.5 100t-120.5 295q0 251 157 387.5t443 136.5q272 0 421 -127.5
t149 -359.5q0 -188 -100 -399t-328 -498z" />
    <glyph glyph-name="colon" unicode=":" horiz-adv-x="739" 
d="M178 375h387l-20 -375h-387zM207 1020h387l-19 -375h-387z" />
    <glyph glyph-name="semicolon" unicode=";" horiz-adv-x="739" 
d="M176 287h442l-311 -539h-313zM213 1020h387l-18 -391h-389z" />
    <glyph glyph-name="less" unicode="&#x3c;" horiz-adv-x="1706" 
d="M1442 1214v-253l-854 -351l854 -348v-254l-1178 486v233z" />
    <glyph glyph-name="equal" unicode="=" horiz-adv-x="1706" 
d="M254 502h1198v-230h-1198v230zM254 950h1198v-231h-1198v231z" />
    <glyph glyph-name="greater" unicode="&#x3e;" horiz-adv-x="1706" 
d="M264 1214l1178 -487v-233l-1178 -486v254l854 348l-854 351v253z" />
    <glyph glyph-name="question" unicode="?" horiz-adv-x="1143" 
d="M340 455v16q0 91 33.5 161t115.5 146q11 10 31 28q150 138 150 191q0 39 -46 61.5t-126 22.5q-78 0 -167 -12t-225 -43l64 340q112 16 216.5 24.5t201.5 8.5q264 0 402 -88t138 -256q0 -157 -244 -361q-21 -17 -32 -26q-68 -58 -90 -102.5t-25 -110.5h-397zM297 0l16 365
h428l-14 -365h-430z" />
    <glyph glyph-name="at" unicode="@" horiz-adv-x="2048" 
d="M1161 262q-56 -82 -126.5 -120t-168.5 -38q-163 0 -247 87.5t-84 257.5q0 241 141.5 404t349.5 163q77 0 134 -30.5t95 -92.5l52 92h206l-153 -610q0 -2 -1 -6q-3 -18 -3 -27q0 -30 16 -44.5t47 -14.5q137 0 240.5 143.5t103.5 335.5q0 239 -179.5 390t-467.5 151
q-148 0 -274 -36.5t-230 -109.5q-155 -110 -239 -274.5t-84 -356.5q0 -302 203 -481.5t544 -179.5q164 0 316 47.5t280 138.5l97 -135q-156 -117 -329 -175t-364 -58q-192 0 -354.5 49t-288.5 145q-157 122 -234 281.5t-77 361.5q0 169 53 320.5t156 277.5
q148 183 359.5 278t467.5 95q170 0 320 -46t260 -132q136 -107 203 -243t67 -306q0 -167 -65.5 -307t-190.5 -240q-69 -56 -154 -85.5t-176 -29.5q-106 0 -161 40t-60 120zM1198 696q-9 76 -50 116t-110 40q-103 0 -181.5 -121.5t-78.5 -286.5q0 -83 35 -128.5t98 -45.5
q84 0 148 59t88 158z" />
    <glyph glyph-name="A" unicode="A" horiz-adv-x="1511" 
d="M498 1192q11 22 27 59.5t42 104.5l539 -1q5 -37 13 -72.5t20 -70.5l397 -1212h-444q-3 25 -8.5 54t-14.5 65l-74 307h-485l-113 -270q-15 -38 -28.5 -77.5t-24.5 -78.5h-448zM809 1167l-182 -432h293z" />
    <glyph glyph-name="B" unicode="B" horiz-adv-x="1354" 
d="M537 821h92q117 0 169 34.5t52 111.5q0 74 -39 103.5t-139 29.5h-119q-1 -10 -3.5 -54t-4.5 -77zM516 258h158q109 0 161 40.5t52 125.5q0 77 -44.5 115.5t-133.5 38.5h-185l-6 -112q-1 -21 -1.5 -49t-0.5 -89v-70zM827 1356q228 0 331.5 -73.5t103.5 -233.5
q0 -138 -84 -227t-238 -113q173 -16 257.5 -96t84.5 -228q0 -187 -127 -286t-367 -99h-714q32 267 50 609.5t22 746.5h681z" />
    <glyph glyph-name="C" unicode="C" horiz-adv-x="1341" 
d="M1286 1030q-82 28 -164 41.5t-161 13.5q-215 0 -335 -113.5t-120 -316.5q0 -189 106 -279.5t328 -90.5q80 0 159.5 10.5t164.5 32.5l-47 -318q-90 -20 -184.5 -30.5t-192.5 -10.5q-376 0 -573 173.5t-197 504.5q0 350 212.5 543.5t598.5 193.5q96 0 193 -10.5t196 -32.5z
" />
    <glyph glyph-name="D" unicode="D" horiz-adv-x="1532" 
d="M526 313h43q135 0 199 14.5t113 49.5q72 51 109.5 137t37.5 201q0 169 -62 248t-194 79h-219l-23 -491q-1 -32 -2.5 -95t-1.5 -143zM76 0q28 256 46 601t23 755h658q196 0 281.5 -21t150.5 -69q112 -84 169.5 -219.5t57.5 -313.5q0 -358 -199.5 -545.5t-580.5 -187.5
h-606z" />
    <glyph glyph-name="E" unicode="E" horiz-adv-x="1270" 
d="M76 0q27 250 44 589.5t23 766.5h1090l-16 -314q-82 4 -145 6.5t-85 2.5l-430 -1q-8 -78 -10 -116t-2 -70v-26h352q69 0 123 2t100 6l-16 -319q-34 3 -72 4t-117 1h-94h-293q-6 -42 -9 -82t-3 -81q0 -24 0.5 -36t1.5 -21q59 -7 127.5 -10t167.5 -3q104 0 199 4t178 12
l-16 -315h-1098z" />
    <glyph glyph-name="F" unicode="F" horiz-adv-x="1155" 
d="M76 0q27 250 44 589.5t23 766.5h1006l-14 -313q-81 3 -145.5 5.5t-86.5 2.5l-346 -1q-8 -78 -10 -116t-2 -70v-26h268q98 0 142.5 1.5t80.5 6.5l-16 -319q-34 3 -72 4t-117 1h-94h-209l-12 -264v-12q-8 -172 -8 -256h-432z" />
    <glyph glyph-name="G" unicode="G" horiz-adv-x="1507" 
d="M1407 37q-134 -34 -265 -51t-261 -17q-392 0 -602.5 171.5t-210.5 490.5q0 358 233 558t653 200q88 0 193.5 -10.5t232.5 -30.5l23 -318q-132 30 -225.5 43.5t-167.5 13.5q-242 0 -377 -122.5t-135 -339.5q0 -162 97 -252t271 -90q37 0 73 4.5t73 14.5q5 46 7.5 86.5
t2.5 76.5v35h-168l16 295h570q-17 -183 -26 -342.5t-9 -276.5q0 -46 0.5 -77t1.5 -62z" />
    <glyph glyph-name="H" unicode="H" horiz-adv-x="1612" 
d="M509 0h-433q28 256 46 601t23 755h436q-7 -64 -13 -134t-11 -147l-10 -198q40 0 125 -1.5t131 -1.5q44 0 138 1.5t144 1.5l9 133q3 68 4.5 134t1.5 130v82h436q-12 -93 -18 -159.5t-9 -123.5l-39 -772q-2 -41 -3 -77.5t-1 -73.5q0 -20 1 -70.5t1 -79.5h-438
q13 146 18 206.5t7 78.5l14 272q-67 3 -134.5 4.5t-135.5 1.5t-134.5 -1.5t-133.5 -4.5l-7 -117q-6 -115 -9.5 -223.5t-5.5 -216.5z" />
    <glyph glyph-name="I" unicode="I" horiz-adv-x="666" 
d="M516 0h-436q28 256 46 601t24 755h436q-6 -49 -11 -109.5t-12 -171.5l-35 -635q-4 -88 -7 -198t-5 -242z" />
    <glyph glyph-name="J" unicode="J" horiz-adv-x="985" 
d="M-16 340q65 -21 125 -32t112 -11q131 0 185 68t65 282l21 410q3 75 4.5 149t1.5 150h425q-11 -118 -17 -207t-9 -168l-22 -548q-10 -247 -137.5 -355.5t-405.5 -108.5q-87 0 -174.5 10t-173.5 29v332z" />
    <glyph glyph-name="K" unicode="K" horiz-adv-x="1432" 
d="M1470 1356l-469 -641l416 -715h-499q-16 49 -38.5 100t-52.5 105l-270 506l311 467q23 34 49.5 79t57.5 99h495zM578 1356q-9 -75 -14.5 -144.5t-8.5 -135.5l-33 -636q-6 -121 -9.5 -228t-5.5 -212h-433q28 256 46 601t23 755h435z" />
    <glyph glyph-name="L" unicode="L" horiz-adv-x="1102" 
d="M586 1356q-27 -205 -41.5 -431.5t-14.5 -461.5q0 -49 4 -146l1 -6q57 -5 108.5 -7.5t99.5 -2.5q86 0 169.5 3.5t191.5 12.5l-17 -317h-1011q27 250 44 589.5t23 766.5h443z" />
    <glyph glyph-name="M" unicode="M" horiz-adv-x="1851" 
d="M737 1356q4 -28 9.5 -60.5t13.5 -76.5l143 -734l219 689q19 57 31.5 99.5t22.5 82.5h579q-6 -106 -11 -241q-1 -29 -1 -40l-27 -774q0 -10 -1 -38t-1 -46q0 -43 1.5 -98t4.5 -119h-401q7 53 12.5 112t7.5 121l25 472q1 15 4 128t6 199l-295 -868q-20 -60 -30.5 -95
t-18.5 -69h-333q-4 30 -10 66.5t-15 78.5l-187 879l-55 -662q-5 -60 -10 -145.5t-11 -216.5h-358q38 249 68.5 594t50.5 762h567z" />
    <glyph glyph-name="N" unicode="N" horiz-adv-x="1612" 
d="M1151 1044v7q4 120 4 180q0 22 -1 63.5t-1 61.5h383q-12 -93 -18 -159.5t-9 -123.5l-39 -772q-2 -41 -3 -77.5t-1 -73.5q0 -20 1 -70.5t1 -79.5h-534q-80 188 -155 356l-7 15l-276 590l-25 -540q-3 -71 -7 -260q-2 -104 -4 -161h-384q19 152 36 427t44 929h520l454 -969z
" />
    <glyph glyph-name="O" unicode="O" horiz-adv-x="1741" 
d="M506 678q0 -197 91 -295t273 -98q173 0 268 108t95 305q0 183 -92.5 278t-270.5 95q-172 0 -268 -103.5t-96 -289.5zM852 -29q-373 0 -578.5 179t-205.5 501q0 343 213 538t587 195q388 0 595.5 -175.5t207.5 -503.5q0 -346 -215.5 -540t-603.5 -194z" />
    <glyph glyph-name="P" unicode="P" horiz-adv-x="1255" 
d="M750 1356q139 0 198.5 -9.5t106.5 -31.5q78 -38 124 -125t46 -199q0 -217 -129 -348t-340 -131q-15 0 -35.5 1.5t-46.5 4.5l-92 260q120 0 178.5 41t58.5 125q0 69 -42.5 107.5t-119.5 38.5q-30 0 -98 -8l-6 -1l-31 -641q-4 -105 -7 -215t-6 -225h-433q28 256 46 601
t23 755h605z" />
    <glyph glyph-name="Q" unicode="Q" horiz-adv-x="1741" 
d="M1702 39q-187 -35 -383 -52.5t-397 -17.5q-424 0 -639 172t-215 510q0 343 213 538t587 195q379 0 590 -172t211 -477q0 -148 -51 -258t-152 -180q67 6 138.5 18t146.5 29zM506 678q0 -197 91 -295t273 -98q173 0 268 108t95 305q0 183 -92.5 278t-270.5 95
q-172 0 -268 -103.5t-96 -289.5z" />
    <glyph glyph-name="R" unicode="R" horiz-adv-x="1350" 
d="M801 1356q133 0 197.5 -9t113.5 -30q79 -34 125.5 -113t46.5 -178q0 -149 -61.5 -249.5t-180.5 -145.5l238 -631h-446l-252 778h10q146 0 217.5 41t71.5 125q0 72 -53.5 109t-159.5 37q-27 0 -54.5 -2.5t-56.5 -6.5l-35 -641q-4 -86 -7.5 -197t-5.5 -243h-433
q28 256 46 601t23 755h656z" />
    <glyph glyph-name="S" unicode="S" horiz-adv-x="1087" 
d="M45 358q121 -41 219.5 -60t188.5 -19q63 0 101 24t38 64q0 56 -147 169q-24 19 -37 29l-3 2q-329 259 -329 443q0 173 144.5 271.5t402.5 98.5q71 0 158 -10t200 -33l25 -307q-110 29 -178.5 41t-116.5 12q-87 0 -130.5 -23.5t-43.5 -70.5q0 -54 161 -177q28 -22 44 -34
q173 -134 236.5 -226.5t63.5 -195.5q0 -189 -144 -286t-427 -97q-83 0 -182 11.5t-213 33.5z" />
    <glyph glyph-name="T" unicode="T" horiz-adv-x="1200" 
d="M1223 1356l-17 -313q-87 9 -170.5 13.5t-165.5 4.5h-47l-37 -619q-3 -62 -4.5 -125t-1.5 -129q0 -76 0.5 -115t1.5 -73h-438q20 167 36 437t27 624q-126 -2 -225.5 -6.5t-171.5 -12.5l17 314h1196z" />
    <glyph glyph-name="U" unicode="U" horiz-adv-x="1479" 
d="M559 1356q-8 -68 -14 -139t-8 -141l-27 -525q-1 -11 -1.5 -25t-0.5 -41q0 -101 51.5 -149.5t157.5 -48.5q117 0 173 58.5t62 189.5l23 475q5 99 6.5 151.5t1.5 98.5q0 39 -0.5 59t-1.5 37h434q-8 -64 -14.5 -133t-11.5 -149l-25 -472q-2 -29 -4 -83q-8 -203 -45 -290
q-55 -124 -213.5 -191t-401.5 -67q-286 0 -445 109t-159 303q0 49 15.5 372.5t17.5 599.5z" />
    <glyph glyph-name="V" unicode="V" horiz-adv-x="1460" 
d="M963 164q-22 -42 -40 -83.5t-32 -80.5h-488q-6 21 -20.5 70.5t-22.5 75.5l-387 1210h450q6 -37 14.5 -77t21.5 -83l231 -809l336 764q17 40 37 92t41 113h450z" />
    <glyph glyph-name="W" unicode="W" horiz-adv-x="2015" 
d="M1700 164q-15 -51 -24 -91.5t-14 -72.5h-519q0 42 -15 139q-1 8 -2 13l-125 866l-210 -845q-10 -39 -20 -81.5t-22 -91.5h-505q0 24 -3.5 56.5t-11.5 88.5l-188 1211h383q0 -38 3 -80t9 -88l109 -813l190 755q12 47 24 104t23 122h516q2 -55 5 -96.5t8 -72.5l135 -812
l180 755l12 51q27 119 35 175h367z" />
    <glyph glyph-name="X" unicode="X" horiz-adv-x="1356" 
d="M879 0q-18 39 -35 73t-29 56l-172 303l-178 -278q-32 -49 -52.5 -86t-33.5 -68h-467l526 717l-405 639h487q12 -30 23 -54.5t22 -45.5l137 -267l138 221q12 19 27 47t51 99h454l-463 -645l459 -711h-489z" />
    <glyph glyph-name="Y" unicode="Y" horiz-adv-x="1171" 
d="M768 174q0 -5 -1 -22t-1 -29q0 -25 3 -93q1 -20 1 -30h-427q5 72 10 147.5t5 81.5l15 291l-412 836h471q13 -53 22.5 -84t18.5 -58l123 -348l149 317q10 20 25.5 55t50.5 118h443l-482 -842z" />
    <glyph glyph-name="Z" unicode="Z" horiz-adv-x="1270" 
d="M37 0l16 322l676 739h-426q-16 0 -48 -2t-126 -8l16 305h1078l-17 -312l-676 -741h406q21 0 79.5 3t153.5 9l-18 -315h-1114z" />
    <glyph glyph-name="bracketleft" unicode="[" horiz-adv-x="725" 
d="M741 1384l-12 -276h-256l-67 -1233h256l-13 -278h-594l3 23q22 199 24 243l61 1198q3 48 3.5 87.5t0.5 78.5q0 22 -1 74.5t-1 82.5h596z" />
    <glyph glyph-name="backslash" unicode="\" horiz-adv-x="590" 
d="M193 1356l450 -1546h-213l-453 1546h216z" />
    <glyph glyph-name="bracketright" unicode="]" horiz-adv-x="725" 
d="M-37 -403l12 278h256l68 1233h-256l12 276h594l-2 -23q-22 -199 -24 -243l-62 -1198q-2 -48 -3 -87.5t-1 -78.5q0 -22 1 -75t1 -82h-596z" />
    <glyph glyph-name="asciicircum" unicode="^" horiz-adv-x="2048" 
d="M879 1462h288l465 -563h-264l-344 342l-346 -342h-264z" />
    <glyph glyph-name="underscore" unicode="_" 
d="M0 -244h1024v-239h-1024v239z" />
    <glyph glyph-name="grave" unicode="`" 
d="M254 1552h258l197 -370h-140z" />
    <glyph glyph-name="a" unicode="a" horiz-adv-x="1169" 
d="M538 -6q-44 -9 -84.5 -14t-76.5 -5q-159 0 -248.5 77.5t-89.5 211.5q0 142 86.5 224t286.5 126q19 5 54 12q228 49 228 115q0 35 -28 50.5t-93 15.5q-89 0 -188 -21.5t-197 -62.5l45 297q91 26 193 39.5t213 13.5q224 0 331 -65.5t107 -202.5q0 -22 -1 -50t-3 -59
l-24 -523q-2 -15 -2 -45v-128h-396q8 108 12.5 168.5t6.5 85.5l8 182q-20 -7 -44.5 -14.5t-64.5 -18.5l-84 -20q-53 -13 -81.5 -40t-28.5 -64q0 -36 26 -58t70 -22q21 0 53 4.5t76 13.5z" />
    <glyph glyph-name="b" unicode="b" horiz-adv-x="1331" 
d="M514 764q-8 -42 -12 -102.5t-4 -135.5q0 -136 42.5 -201t131.5 -65q90 0 140 74t50 209q0 128 -50.5 190t-154.5 62q-38 0 -73.5 -8t-69.5 -23zM475 0h-393q28 348 44.5 686t21.5 668l401 -1q-5 -69 -9.5 -148.5t-9.5 -170.5q64 19 121 28t109 9q229 0 366.5 -141.5
t137.5 -378.5q0 -262 -134 -421t-352 -159q-102 0 -177 36.5t-122 109.5z" />
    <glyph glyph-name="c" unicode="c" horiz-adv-x="995" 
d="M874 6q-82 -18 -157.5 -27.5t-143.5 -9.5q-243 0 -377.5 136t-134.5 382q0 274 155.5 429t428.5 155q63 0 133.5 -10.5t149.5 -32.5l14 -305q-98 23 -140.5 30t-76.5 7q-124 0 -189 -66.5t-65 -193.5q0 -102 59.5 -157.5t169.5 -55.5q51 0 105 8.5t117 26.5z" />
    <glyph glyph-name="d" unicode="d" horiz-adv-x="1327" 
d="M842 788q-27 9 -51.5 13t-47.5 4q-127 0 -200.5 -86t-73.5 -234q0 -107 45 -168t123 -61q89 0 137.5 65.5t54.5 194.5zM801 66q-53 -49 -122.5 -72t-162.5 -23q-209 0 -328.5 126t-119.5 345q0 281 178 453t465 172q28 0 62.5 -3t76.5 -9q5 64 7.5 136t2.5 165h395
q-27 -402 -45.5 -734.5t-30.5 -621.5h-380z" />
    <glyph glyph-name="e" unicode="e" horiz-adv-x="1186" 
d="M487 653h269v9q0 84 -30 128t-87 44q-61 0 -101 -47.5t-51 -133.5zM977 14q-98 -21 -189 -32t-174 -11q-266 0 -407 130t-141 374q0 280 156 438t433 158q238 0 354.5 -104t116.5 -316q0 -39 -4.5 -89.5t-13.5 -110.5l-623 -1q-1 -5 -1.5 -11t-0.5 -19q0 -87 62 -128.5
t194 -41.5q68 0 138 8.5t143 26.5z" />
    <glyph glyph-name="f" unicode="f" horiz-adv-x="768" 
d="M164 760h-144l17 282l141 1q5 184 98 262.5t308 78.5q58 0 120.5 -6.5t129.5 -19.5l11 -215q-43 11 -80 16.5t-67 5.5q-67 0 -106.5 -32.5t-42.5 -89.5l252 -1l-15 -282h-223q-8 -161 -13 -339t-7 -421h-420q21 252 31 432t10 297v31z" />
    <glyph glyph-name="g" unicode="g" horiz-adv-x="1325" 
d="M188 -119q119 -36 211 -53.5t162 -17.5q125 0 185.5 56.5t60.5 174.5q0 5 -1 16.5t-1 18.5q-62 -38 -133 -56t-158 -18q-209 0 -327.5 121.5t-118.5 333.5q0 295 193 453.5t554 158.5q113 0 220 -13.5t202 -39.5q-26 -358 -45 -738t-25 -408q-36 -173 -167 -253t-379 -80
q-105 0 -207.5 14t-200.5 41zM841 791q-24 7 -48.5 10.5t-49.5 3.5q-129 0 -201.5 -82t-72.5 -229q0 -99 45 -155t123 -56q89 0 137.5 62.5t54.5 184.5z" />
    <glyph glyph-name="h" unicode="h" horiz-adv-x="1341" 
d="M70 0q23 215 41 556.5t30 799.5h404q-11 -98 -18.5 -206.5t-12.5 -227.5q61 78 143.5 114.5t198.5 36.5q205 0 298 -80t93 -258q0 -64 -13 -308.5t-17 -426.5h-394q13 161 20 296.5t7 213.5q0 148 -32 203t-111 55q-129 0 -179.5 -143t-54.5 -625h-403z" />
    <glyph glyph-name="i" unicode="i" horiz-adv-x="606" 
d="M131 1116l12 240h406l-12 -240h-406zM537 1026q-26 -224 -39 -474.5t-13 -551.5h-415q25 237 38 493t13 533h416z" />
    <glyph glyph-name="j" unicode="j" horiz-adv-x="606" 
d="M139 1116l13 240h405l-12 -240h-406zM545 1026q-20 -191 -30.5 -325.5t-10.5 -186.5q0 -20 -5.5 -199.5t-9.5 -324.5v-25q-3 -176 -43 -250q-50 -93 -148.5 -134.5t-274.5 -41.5q-51 0 -105.5 7t-116.5 22l-20 299q32 -10 67.5 -15.5t73.5 -5.5q87 0 123 42.5t49 181.5
q16 169 24.5 404t10.5 552h416z" />
    <glyph glyph-name="k" unicode="k" horiz-adv-x="1237" 
d="M66 0q27 207 45.5 558.5t23.5 796.5l404 1q-11 -89 -18.5 -193.5t-12.5 -224.5l-39 -938h-403zM500 569q88 109 171.5 226.5t164.5 246.5h426l-347 -467l324 -575h-448q-60 137 -132.5 278.5t-158.5 290.5z" />
    <glyph glyph-name="l" unicode="l" horiz-adv-x="612" 
d="M557 1356q-34 -413 -52 -744.5t-18 -570.5v-41h-411q33 466 50 790.5t21 565.5h410z" />
    <glyph glyph-name="m" unicode="m" horiz-adv-x="1866" 
d="M70 0q25 243 38 503t13 539h383v-129q60 86 130 123t173 37q127 0 207 -45t110 -133q60 96 131 137t179 41q176 0 257 -80.5t81 -257.5q0 -65 -12 -309.5t-16 -425.5h-390q12 119 18 246.5t6 263.5q0 152 -23.5 205t-82.5 53q-97 0 -136.5 -152.5t-39.5 -566.5v-49h-377
q12 135 18 262.5t6 247.5q0 152 -23.5 205t-82.5 53q-97 0 -136.5 -152.5t-39.5 -566.5v-49h-391z" />
    <glyph glyph-name="n" unicode="n" horiz-adv-x="1341" 
d="M70 0q25 243 38 503t13 539h383v-129q68 85 151 122.5t201 37.5q205 0 298 -80t93 -258q0 -64 -13 -308.5t-17 -426.5h-394q13 161 20 296.5t7 213.5q0 148 -32 203t-111 55q-129 0 -179.5 -143t-54.5 -625h-403z" />
    <glyph glyph-name="o" unicode="o" horiz-adv-x="1294" 
d="M653 793q-94 0 -141 -71.5t-47 -215.5q0 -129 43 -190.5t133 -61.5q93 0 140.5 68.5t47.5 201.5q0 144 -41 206.5t-135 62.5zM61 500q0 266 162.5 418.5t444.5 152.5q271 0 418 -137t147 -389q0 -268 -160.5 -421t-441.5 -153q-274 0 -422 137t-148 392z" />
    <glyph glyph-name="p" unicode="p" horiz-adv-x="1331" 
d="M514 764q-8 -42 -12 -102.5t-4 -135.5q0 -134 41.5 -196t132.5 -62q92 0 141 71t49 204q0 128 -50.5 190t-154.5 62q-38 0 -73.5 -8t-69.5 -23zM51 -432q31 187 51 535.5t31 897.5q129 35 256.5 52.5t253.5 17.5q311 0 466 -131t155 -395q0 -260 -135 -417t-359 -157
q-90 0 -161.5 24.5t-127.5 74.5l-10 -214q-4 -63 -6.5 -136t-4.5 -152h-409z" />
    <glyph glyph-name="q" unicode="q" horiz-adv-x="1327" 
d="M842 788q-27 9 -51.5 13t-47.5 4q-129 0 -200.5 -85.5t-71.5 -240.5q0 -104 44.5 -163.5t121.5 -59.5q89 0 137.5 65.5t54.5 194.5zM805 47q-59 -38 -131 -57t-160 -19q-207 0 -326.5 125.5t-119.5 343.5q0 304 192.5 467.5t550.5 163.5q134 0 247.5 -15t178.5 -40
q-35 -495 -55 -866t-23 -582h-383q14 151 21.5 264t7.5 160v55z" />
    <glyph glyph-name="r" unicode="r" horiz-adv-x="860" 
d="M831 748q-11 1 -22.5 1.5t-34.5 0.5q-100 0 -164 -39.5t-92 -118.5q-19 -54 -28.5 -161t-16.5 -431h-403q24 233 36.5 468t12.5 470v104h354l-8 -145q54 91 123.5 132.5t167.5 41.5q19 0 57 -3q4 -1 6 -1z" />
    <glyph glyph-name="s" unicode="s" horiz-adv-x="909" 
d="M25 326q118 -35 190.5 -49.5t124.5 -14.5q53 0 81 16t28 46q0 31 -116 109q-15 10 -23 15q-163 108 -209 173.5t-46 152.5q0 145 109.5 220t318.5 75q96 0 179 -9.5t155 -29.5l25 -282q-75 21 -137.5 30.5t-120.5 9.5q-44 0 -69.5 -15.5t-25.5 -41.5q0 -38 92 -95
q22 -14 33 -22q139 -89 190.5 -160.5t51.5 -162.5q0 -158 -112.5 -239t-331.5 -81q-93 0 -184 12t-177 35z" />
    <glyph glyph-name="t" unicode="t" horiz-adv-x="786" 
d="M528 496q0 -2 -1 -18.5t-1 -31.5q0 -101 27.5 -138.5t95.5 -37.5q15 0 62 8q19 3 30 4l-24 -290q-50 -11 -104 -16t-113 -5q-185 0 -275 81.5t-90 248.5v35l23 438h-150l12 268h166l9 168l368 82l-14 -250h233l-14 -268h-225z" />
    <glyph glyph-name="u" unicode="u" horiz-adv-x="1341" 
d="M1272 1042q-26 -242 -38.5 -502.5t-12.5 -539.5h-383v131q-72 -86 -154 -124t-199 -38q-205 0 -298 80.5t-93 257.5q0 64 13.5 309t17.5 426h393q-13 -161 -19.5 -295.5t-6.5 -211.5q0 -150 32 -205.5t111 -55.5q129 0 179 143t54 625h404z" />
    <glyph glyph-name="v" unicode="v" horiz-adv-x="1143" 
d="M311 0q-34 136 -120 413t-203 629h397q11 -48 30 -119.5t44 -160.5l110 -410l150 410q19 53 41.5 125.5t46.5 154.5h387q-165 -396 -268 -653.5t-148 -388.5h-467z" />
    <glyph glyph-name="w" unicode="w" horiz-adv-x="1821" 
d="M1444 823q11 35 26.5 87t36.5 132h359q-44 -106 -85.5 -211t-82.5 -210l-240 -621h-399l-141 662l-222 -662h-393l-149 524q-33 116 -71.5 242t-86.5 276h383q14 -83 47 -199v-1l119 -453l198 653h396l166 -657z" />
    <glyph glyph-name="x" unicode="x" horiz-adv-x="1139" 
d="M496 1042q19 -59 35 -106t26 -74l37 -104l51 112q17 37 33 78.5t33 93.5h448q-38 -52 -84 -119.5t-108 -162.5l-146 -225l135 -226q34 -57 82 -132t115 -177h-481q-23 57 -42 104.5t-32 77.5l-53 125l-47 -122q-5 -11 -31.5 -75.5t-44.5 -109.5h-457q88 128 138 204.5
t85 135.5l138 225l-148 252q-9 17 -43 70t-100 155h461z" />
    <glyph glyph-name="y" unicode="y" horiz-adv-x="1143" 
d="M352 0l-231 672q-27 80 -60.5 171.5t-74.5 198.5h430q15 -66 32.5 -132t36.5 -134l113 -401l102 340q23 77 45 158.5t43 168.5h402l-414 -1042q-107 -270 -232 -365.5t-351 -95.5q-54 0 -107.5 7t-110.5 22l-18 258q46 -9 83.5 -13.5t68.5 -5.5q94 0 151.5 45.5
t91.5 147.5z" />
    <glyph glyph-name="z" unicode="z" horiz-adv-x="1067" 
d="M748 281q30 0 85 3t140 9l-15 -293h-927l14 297l485 465h-272q-42 0 -84 -1.5t-84 -4.5l14 286h908l-17 -315l-469 -446h222z" />
    <glyph glyph-name="braceleft" unicode="{" 
d="M893 1477v-242q-7 0 -21 1t-20 1q-98 0 -132 -35.5t-34 -146.5v-240q0 -140 -46 -200t-165 -85q120 -24 165.5 -82.5t45.5 -199.5v-242q0 -110 33.5 -145t130.5 -35q7 0 21.5 1t21.5 1v-242q-15 0 -42 -1t-40 -1q-108 0 -179.5 12t-119.5 37q-59 32 -82.5 88.5
t-23.5 192.5v256q0 133 -49.5 187.5t-168.5 54.5q-4 0 -17 -1t-19 -1v241q6 0 18 -1t18 -1q118 0 168 55.5t50 188.5v254q0 136 24 193.5t82 89.5q48 25 120.5 37t180.5 12q12 0 38.5 -1t41.5 -1z" />
    <glyph glyph-name="bar" unicode="|" 
d="M393 1565h240v-2048h-240v2048z" />
    <glyph glyph-name="braceright" unicode="}" 
d="M133 1477q15 0 41.5 1t38.5 1q108 0 180 -12t121 -37q58 -32 82.5 -89.5t24.5 -193.5v-254q0 -134 49 -189t168 -55q6 0 18 1t18 1v-241q-6 0 -18 1t-18 1q-119 0 -168 -55t-49 -187v-256q0 -137 -24.5 -194.5t-82.5 -88.5q-45 -24 -113.5 -35.5t-177.5 -11.5
q-14 0 -44 1t-46 1v242q9 0 23 -1t20 -1q97 0 130.5 34.5t33.5 145.5v242q0 140 46 199t165 83q-120 25 -165.5 84t-45.5 201v240q0 111 -33.5 146.5t-126.5 35.5q-7 0 -22.5 -1t-24.5 -1v242z" />
    <glyph glyph-name="asciitilde" unicode="~" horiz-adv-x="1706" 
d="M1530 819v-254q-101 -69 -194 -103t-183 -34q-45 0 -89 7.5t-83 21.5q-13 4 -38 13q-255 89 -382 89q-84 0 -175.5 -37.5t-207.5 -120.5v254q112 73 207.5 108.5t179.5 35.5q63 0 126.5 -12t169.5 -46q16 -5 51 -17q159 -56 247 -56q84 0 173.5 36t197.5 115z" />
    <glyph glyph-name="Adieresis" unicode="&#xc4;" horiz-adv-x="1511" 
d="M498 1192q11 22 27 59.5t42 104.5l539 -1q5 -37 13 -72.5t20 -70.5l397 -1212h-444q-3 25 -8.5 54t-14.5 65l-74 307h-485l-113 -270q-15 -38 -28.5 -77.5t-24.5 -78.5h-448zM809 1167l-182 -432h293zM909 1526v246h226v-246h-226zM559 1526v246h225v-246h-225z" />
    <glyph glyph-name="Aring" unicode="&#xc5;" horiz-adv-x="1511" 
d="M733 1688q0 -52 35.5 -86.5t87.5 -34.5t87.5 35t35.5 86q0 50 -36 86t-87 36q-52 0 -87.5 -35t-35.5 -87zM590 1690q0 110 77 187t189 77t189 -77t77 -187q0 -113 -77 -191t-189 -78t-189 78t-77 191zM809 1167l-182 -432h293zM498 1192q11 22 27 59.5t42 104.5l539 -1
q5 -37 13 -72.5t20 -70.5l397 -1212h-444q-3 25 -8.5 54t-14.5 65l-74 307h-485l-113 -270q-15 -38 -28.5 -77.5t-24.5 -78.5h-448z" />
    <glyph glyph-name="Ccedilla" unicode="&#xc7;" horiz-adv-x="1341" 
d="M1286 1030q-82 28 -164 41.5t-161 13.5q-215 0 -335 -113.5t-120 -316.5q0 -189 106 -279.5t328 -90.5q80 0 159.5 10.5t164.5 32.5l-47 -318q-90 -20 -184.5 -30.5t-192.5 -10.5q-376 0 -573 173.5t-197 504.5q0 350 212.5 543.5t598.5 193.5q96 0 193 -10.5t196 -32.5z
M545 -438v127q81 -22 145.5 -32.5t110.5 -10.5q51 0 75.5 18.5t24.5 56.5q0 37 -27 52.5t-92 15.5q-22 0 -35 -0.5t-24 -0.5v212h102v-90h15q116 0 175.5 -48.5t59.5 -144.5q0 -99 -66 -148.5t-200 -49.5q-51 0 -118 11t-146 32z" />
    <glyph glyph-name="Eacute" unicode="&#xc9;" horiz-adv-x="1270" 
d="M76 0q27 250 44 589.5t23 766.5h1090l-16 -314q-82 4 -145 6.5t-85 2.5l-430 -1q-8 -78 -10 -116t-2 -70v-26h352q69 0 123 2t100 6l-16 -319q-34 3 -72 4t-117 1h-94h-293q-6 -42 -9 -82t-3 -81q0 -24 0.5 -36t1.5 -21q59 -7 127.5 -10t167.5 -3q104 0 199 4t178 12
l-16 -315h-1098zM1016 1837l-316 -370h-141l197 370h260z" />
    <glyph glyph-name="Ntilde" unicode="&#xd1;" horiz-adv-x="1612" 
d="M1151 1044v7q4 120 4 180q0 22 -1 63.5t-1 61.5h383q-12 -93 -18 -159.5t-9 -123.5l-39 -772q-2 -41 -3 -77.5t-1 -73.5q0 -20 1 -70.5t1 -79.5h-534q-80 188 -155 356l-7 15l-276 590l-25 -540q-3 -71 -7 -260q-2 -104 -4 -161h-384q19 152 36 427t44 929h520l454 -969z
M1169 1788q-26 -124 -77 -182.5t-132 -58.5q-21 0 -39 2.5t-35 7.5l-87 24q-28 8 -42 10.5t-24 2.5q-34 0 -55 -19t-33 -61h-111q25 122 75 179.5t130 57.5q21 0 43.5 -3.5t44.5 -10.5l90 -25q13 -4 26.5 -6t29.5 -2q32 0 53.5 21t32.5 63h110z" />
    <glyph glyph-name="Odieresis" unicode="&#xd6;" horiz-adv-x="1741" 
d="M506 678q0 -197 91 -295t273 -98q173 0 268 108t95 305q0 183 -92.5 278t-270.5 95q-172 0 -268 -103.5t-96 -289.5zM852 -29q-373 0 -578.5 179t-205.5 501q0 343 213 538t587 195q388 0 595.5 -175.5t207.5 -503.5q0 -346 -215.5 -540t-603.5 -194zM981 1526v246h226
v-246h-226zM631 1526v246h225v-246h-225z" />
    <glyph glyph-name="Udieresis" unicode="&#xdc;" horiz-adv-x="1479" 
d="M559 1356q-8 -68 -14 -139t-8 -141l-27 -525q-1 -11 -1.5 -25t-0.5 -41q0 -101 51.5 -149.5t157.5 -48.5q117 0 173 58.5t62 189.5l23 475q5 99 6.5 151.5t1.5 98.5q0 39 -0.5 59t-1.5 37h434q-8 -64 -14.5 -133t-11.5 -149l-25 -472q-2 -29 -4 -83q-8 -203 -45 -290
q-55 -124 -213.5 -191t-401.5 -67q-286 0 -445 109t-159 303q0 49 15.5 372.5t17.5 599.5zM850 1526v246h226v-246h-226zM500 1526v246h225v-246h-225z" />
    <glyph glyph-name="aacute" unicode="&#xe1;" horiz-adv-x="1169" 
d="M538 -6q-44 -9 -84.5 -14t-76.5 -5q-159 0 -248.5 77.5t-89.5 211.5q0 142 86.5 224t286.5 126q19 5 54 12q228 49 228 115q0 35 -28 50.5t-93 15.5q-89 0 -188 -21.5t-197 -62.5l45 297q91 26 193 39.5t213 13.5q224 0 331 -65.5t107 -202.5q0 -22 -1 -50t-3 -59
l-24 -523q-2 -15 -2 -45v-128h-396q8 108 12.5 168.5t6.5 85.5l8 182q-20 -7 -44.5 -14.5t-64.5 -18.5l-84 -20q-53 -13 -81.5 -40t-28.5 -64q0 -36 26 -58t70 -22q21 0 53 4.5t76 13.5zM967 1552l-316 -370h-141l197 370h260z" />
    <glyph glyph-name="agrave" unicode="&#xe0;" horiz-adv-x="1169" 
d="M538 -6q-44 -9 -84.5 -14t-76.5 -5q-159 0 -248.5 77.5t-89.5 211.5q0 142 86.5 224t286.5 126q19 5 54 12q228 49 228 115q0 35 -28 50.5t-93 15.5q-89 0 -188 -21.5t-197 -62.5l45 297q91 26 193 39.5t213 13.5q224 0 331 -65.5t107 -202.5q0 -22 -1 -50t-3 -59
l-24 -523q-2 -15 -2 -45v-128h-396q8 108 12.5 168.5t6.5 85.5l8 182q-20 -7 -44.5 -14.5t-64.5 -18.5l-84 -20q-53 -13 -81.5 -40t-28.5 -64q0 -36 26 -58t70 -22q21 0 53 4.5t76 13.5zM379 1552h258l197 -370h-140z" />
    <glyph glyph-name="acircumflex" unicode="&#xe2;" horiz-adv-x="1169" 
d="M538 -6q-44 -9 -84.5 -14t-76.5 -5q-159 0 -248.5 77.5t-89.5 211.5q0 142 86.5 224t286.5 126q19 5 54 12q228 49 228 115q0 35 -28 50.5t-93 15.5q-89 0 -188 -21.5t-197 -62.5l45 297q91 26 193 39.5t213 13.5q224 0 331 -65.5t107 -202.5q0 -22 -1 -50t-3 -59
l-24 -523q-2 -15 -2 -45v-128h-396q8 108 12.5 168.5t6.5 85.5l8 182q-20 -7 -44.5 -14.5t-64.5 -18.5l-84 -20q-53 -13 -81.5 -40t-28.5 -64q0 -36 26 -58t70 -22q21 0 53 4.5t76 13.5zM356 1182l197 370h238l196 -370h-141l-174 219l-174 -219h-142z" />
    <glyph glyph-name="adieresis" unicode="&#xe4;" horiz-adv-x="1169" 
d="M538 -6q-44 -9 -84.5 -14t-76.5 -5q-159 0 -248.5 77.5t-89.5 211.5q0 142 86.5 224t286.5 126q19 5 54 12q228 49 228 115q0 35 -28 50.5t-93 15.5q-89 0 -188 -21.5t-197 -62.5l45 297q91 26 193 39.5t213 13.5q224 0 331 -65.5t107 -202.5q0 -22 -1 -50t-3 -59
l-24 -523q-2 -15 -2 -45v-128h-396q8 108 12.5 168.5t6.5 85.5l8 182q-20 -7 -44.5 -14.5t-64.5 -18.5l-84 -20q-53 -13 -81.5 -40t-28.5 -64q0 -36 26 -58t70 -22q21 0 53 4.5t76 13.5zM735 1241v246h226v-246h-226zM385 1241v246h225v-246h-225z" />
    <glyph glyph-name="atilde" unicode="&#xe3;" horiz-adv-x="1169" 
d="M538 -6q-44 -9 -84.5 -14t-76.5 -5q-159 0 -248.5 77.5t-89.5 211.5q0 142 86.5 224t286.5 126q19 5 54 12q228 49 228 115q0 35 -28 50.5t-93 15.5q-89 0 -188 -21.5t-197 -62.5l45 297q91 26 193 39.5t213 13.5q224 0 331 -65.5t107 -202.5q0 -22 -1 -50t-3 -59
l-24 -523q-2 -15 -2 -45v-128h-396q8 108 12.5 168.5t6.5 85.5l8 182q-20 -7 -44.5 -14.5t-64.5 -18.5l-84 -20q-53 -13 -81.5 -40t-28.5 -64q0 -36 26 -58t70 -22q21 0 53 4.5t76 13.5zM989 1503q-26 -124 -77 -182.5t-132 -58.5q-21 0 -39 2.5t-35 7.5l-87 24
q-28 8 -42 10.5t-24 2.5q-34 0 -55 -19t-33 -61h-111q25 122 75 179.5t130 57.5q21 0 43.5 -3.5t44.5 -10.5l90 -25q13 -4 26.5 -6t29.5 -2q32 0 53.5 21t32.5 63h110z" />
    <glyph glyph-name="aring" unicode="&#xe5;" horiz-adv-x="1169" 
d="M563 1403q0 -52 34.5 -86.5t86.5 -34.5t87.5 35t35.5 86t-36 87t-87 36q-52 0 -86.5 -35.5t-34.5 -87.5zM420 1405q0 111 76 187.5t188 76.5t189 -76.5t77 -187.5q0 -112 -77 -189t-189 -77t-188 76.5t-76 189.5zM538 -6q-44 -9 -84.5 -14t-76.5 -5q-159 0 -248.5 77.5
t-89.5 211.5q0 142 86.5 224t286.5 126q19 5 54 12q228 49 228 115q0 35 -28 50.5t-93 15.5q-89 0 -188 -21.5t-197 -62.5l45 297q91 26 193 39.5t213 13.5q224 0 331 -65.5t107 -202.5q0 -22 -1 -50t-3 -59l-24 -523q-2 -15 -2 -45v-128h-396q8 108 12.5 168.5t6.5 85.5
l8 182q-20 -7 -44.5 -14.5t-64.5 -18.5l-84 -20q-53 -13 -81.5 -40t-28.5 -64q0 -36 26 -58t70 -22q21 0 53 4.5t76 13.5z" />
    <glyph glyph-name="ccedilla" unicode="&#xe7;" horiz-adv-x="995" 
d="M874 6q-82 -18 -157.5 -27.5t-143.5 -9.5q-243 0 -377.5 136t-134.5 382q0 274 155.5 429t428.5 155q63 0 133.5 -10.5t149.5 -32.5l14 -305q-98 23 -140.5 30t-76.5 7q-124 0 -189 -66.5t-65 -193.5q0 -102 59.5 -157.5t169.5 -55.5q51 0 105 8.5t117 26.5zM293 -438
v127q81 -22 145.5 -32.5t110.5 -10.5q51 0 75.5 18.5t24.5 56.5q0 37 -27 52.5t-92 15.5q-22 0 -35 -0.5t-24 -0.5v212h102v-90h15q116 0 175.5 -48.5t59.5 -144.5q0 -99 -66 -148.5t-200 -49.5q-51 0 -118 11t-146 32z" />
    <glyph glyph-name="eacute" unicode="&#xe9;" horiz-adv-x="1186" 
d="M487 653h269v9q0 84 -30 128t-87 44q-61 0 -101 -47.5t-51 -133.5zM977 14q-98 -21 -189 -32t-174 -11q-266 0 -407 130t-141 374q0 280 156 438t433 158q238 0 354.5 -104t116.5 -316q0 -39 -4.5 -89.5t-13.5 -110.5l-623 -1q-1 -5 -1.5 -11t-0.5 -19q0 -87 62 -128.5
t194 -41.5q68 0 138 8.5t143 26.5zM971 1552l-316 -370h-141l197 370h260z" />
    <glyph glyph-name="egrave" unicode="&#xe8;" horiz-adv-x="1186" 
d="M487 653h269v9q0 84 -30 128t-87 44q-61 0 -101 -47.5t-51 -133.5zM977 14q-98 -21 -189 -32t-174 -11q-266 0 -407 130t-141 374q0 280 156 438t433 158q238 0 354.5 -104t116.5 -316q0 -39 -4.5 -89.5t-13.5 -110.5l-623 -1q-1 -5 -1.5 -11t-0.5 -19q0 -87 62 -128.5
t194 -41.5q68 0 138 8.5t143 26.5zM383 1552h258l197 -370h-140z" />
    <glyph glyph-name="ecircumflex" unicode="&#xea;" horiz-adv-x="1186" 
d="M487 653h269v9q0 84 -30 128t-87 44q-61 0 -101 -47.5t-51 -133.5zM977 14q-98 -21 -189 -32t-174 -11q-266 0 -407 130t-141 374q0 280 156 438t433 158q238 0 354.5 -104t116.5 -316q0 -39 -4.5 -89.5t-13.5 -110.5l-623 -1q-1 -5 -1.5 -11t-0.5 -19q0 -87 62 -128.5
t194 -41.5q68 0 138 8.5t143 26.5zM360 1182l197 370h238l196 -370h-141l-174 219l-174 -219h-142z" />
    <glyph glyph-name="edieresis" unicode="&#xeb;" horiz-adv-x="1186" 
d="M487 653h269v9q0 84 -30 128t-87 44q-61 0 -101 -47.5t-51 -133.5zM977 14q-98 -21 -189 -32t-174 -11q-266 0 -407 130t-141 374q0 280 156 438t433 158q238 0 354.5 -104t116.5 -316q0 -39 -4.5 -89.5t-13.5 -110.5l-623 -1q-1 -5 -1.5 -11t-0.5 -19q0 -87 62 -128.5
t194 -41.5q68 0 138 8.5t143 26.5zM739 1241v246h226v-246h-226zM389 1241v246h225v-246h-225z" />
    <glyph glyph-name="iacute" unicode="&#xed;" horiz-adv-x="606" 
d="M537 1026q-26 -224 -39 -474.5t-13 -551.5h-415q25 237 38 493t13 533h416zM633 1552l-316 -370h-141l197 370h260z" />
    <glyph glyph-name="igrave" unicode="&#xec;" horiz-adv-x="606" 
d="M537 1026q-26 -224 -39 -474.5t-13 -551.5h-415q25 237 38 493t13 533h416zM45 1552h258l197 -370h-140z" />
    <glyph glyph-name="icircumflex" unicode="&#xee;" horiz-adv-x="606" 
d="M537 1026q-26 -224 -39 -474.5t-13 -551.5h-415q25 237 38 493t13 533h416zM22 1182l197 370h238l196 -370h-141l-174 219l-174 -219h-142z" />
    <glyph glyph-name="idieresis" unicode="&#xef;" horiz-adv-x="606" 
d="M537 1026q-26 -224 -39 -474.5t-13 -551.5h-415q25 237 38 493t13 533h416zM401 1241v246h226v-246h-226zM51 1241v246h225v-246h-225z" />
    <glyph glyph-name="ntilde" unicode="&#xf1;" horiz-adv-x="1341" 
d="M70 0q25 243 38 503t13 539h383v-129q68 85 151 122.5t201 37.5q205 0 298 -80t93 -258q0 -64 -13 -308.5t-17 -426.5h-394q13 161 20 296.5t7 213.5q0 148 -32 203t-111 55q-129 0 -179.5 -143t-54.5 -625h-403zM1024 1503q-26 -124 -77 -182.5t-132 -58.5
q-21 0 -39 2.5t-35 7.5l-87 24q-28 8 -42 10.5t-24 2.5q-34 0 -55 -19t-33 -61h-111q25 122 75 179.5t130 57.5q21 0 43.5 -3.5t44.5 -10.5l90 -25q13 -4 26.5 -6t29.5 -2q32 0 53.5 21t32.5 63h110z" />
    <glyph glyph-name="oacute" unicode="&#xf3;" horiz-adv-x="1294" 
d="M653 793q-94 0 -141 -71.5t-47 -215.5q0 -129 43 -190.5t133 -61.5q93 0 140.5 68.5t47.5 201.5q0 144 -41 206.5t-135 62.5zM61 500q0 266 162.5 418.5t444.5 152.5q271 0 418 -137t147 -389q0 -268 -160.5 -421t-441.5 -153q-274 0 -422 137t-148 392zM977 1552
l-316 -370h-141l197 370h260z" />
    <glyph glyph-name="ograve" unicode="&#xf2;" horiz-adv-x="1294" 
d="M653 793q-94 0 -141 -71.5t-47 -215.5q0 -129 43 -190.5t133 -61.5q93 0 140.5 68.5t47.5 201.5q0 144 -41 206.5t-135 62.5zM61 500q0 266 162.5 418.5t444.5 152.5q271 0 418 -137t147 -389q0 -268 -160.5 -421t-441.5 -153q-274 0 -422 137t-148 392zM389 1552h258
l197 -370h-140z" />
    <glyph glyph-name="ocircumflex" unicode="&#xf4;" horiz-adv-x="1294" 
d="M653 793q-94 0 -141 -71.5t-47 -215.5q0 -129 43 -190.5t133 -61.5q93 0 140.5 68.5t47.5 201.5q0 144 -41 206.5t-135 62.5zM61 500q0 266 162.5 418.5t444.5 152.5q271 0 418 -137t147 -389q0 -268 -160.5 -421t-441.5 -153q-274 0 -422 137t-148 392zM366 1182
l197 370h238l196 -370h-141l-174 219l-174 -219h-142z" />
    <glyph glyph-name="odieresis" unicode="&#xf6;" horiz-adv-x="1294" 
d="M653 793q-94 0 -141 -71.5t-47 -215.5q0 -129 43 -190.5t133 -61.5q93 0 140.5 68.5t47.5 201.5q0 144 -41 206.5t-135 62.5zM61 500q0 266 162.5 418.5t444.5 152.5q271 0 418 -137t147 -389q0 -268 -160.5 -421t-441.5 -153q-274 0 -422 137t-148 392zM745 1241v246
h226v-246h-226zM395 1241v246h225v-246h-225z" />
    <glyph glyph-name="otilde" unicode="&#xf5;" horiz-adv-x="1294" 
d="M653 793q-94 0 -141 -71.5t-47 -215.5q0 -129 43 -190.5t133 -61.5q93 0 140.5 68.5t47.5 201.5q0 144 -41 206.5t-135 62.5zM61 500q0 266 162.5 418.5t444.5 152.5q271 0 418 -137t147 -389q0 -268 -160.5 -421t-441.5 -153q-274 0 -422 137t-148 392zM999 1503
q-26 -124 -77 -182.5t-132 -58.5q-21 0 -39 2.5t-35 7.5l-87 24q-28 8 -42 10.5t-24 2.5q-34 0 -55 -19t-33 -61h-111q25 122 75 179.5t130 57.5q21 0 43.5 -3.5t44.5 -10.5l90 -25q13 -4 26.5 -6t29.5 -2q32 0 53.5 21t32.5 63h110z" />
    <glyph glyph-name="uacute" unicode="&#xfa;" horiz-adv-x="1341" 
d="M1272 1042q-26 -242 -38.5 -502.5t-12.5 -539.5h-383v131q-72 -86 -154 -124t-199 -38q-205 0 -298 80.5t-93 257.5q0 64 13.5 309t17.5 426h393q-13 -161 -19.5 -295.5t-6.5 -211.5q0 -150 32 -205.5t111 -55.5q129 0 179 143t54 625h404zM1002 1552l-316 -370h-141
l197 370h260z" />
    <glyph glyph-name="ugrave" unicode="&#xf9;" horiz-adv-x="1341" 
d="M1272 1042q-26 -242 -38.5 -502.5t-12.5 -539.5h-383v131q-72 -86 -154 -124t-199 -38q-205 0 -298 80.5t-93 257.5q0 64 13.5 309t17.5 426h393q-13 -161 -19.5 -295.5t-6.5 -211.5q0 -150 32 -205.5t111 -55.5q129 0 179 143t54 625h404zM414 1552h258l197 -370h-140z
" />
    <glyph glyph-name="ucircumflex" unicode="&#xfb;" horiz-adv-x="1341" 
d="M1272 1042q-26 -242 -38.5 -502.5t-12.5 -539.5h-383v131q-72 -86 -154 -124t-199 -38q-205 0 -298 80.5t-93 257.5q0 64 13.5 309t17.5 426h393q-13 -161 -19.5 -295.5t-6.5 -211.5q0 -150 32 -205.5t111 -55.5q129 0 179 143t54 625h404zM391 1182l197 370h238
l196 -370h-141l-174 219l-174 -219h-142z" />
    <glyph glyph-name="udieresis" unicode="&#xfc;" horiz-adv-x="1341" 
d="M1272 1042q-26 -242 -38.5 -502.5t-12.5 -539.5h-383v131q-72 -86 -154 -124t-199 -38q-205 0 -298 80.5t-93 257.5q0 64 13.5 309t17.5 426h393q-13 -161 -19.5 -295.5t-6.5 -211.5q0 -150 32 -205.5t111 -55.5q129 0 179 143t54 625h404zM770 1241v246h226v-246h-226z
M420 1241v246h225v-246h-225z" />
    <glyph glyph-name="dagger" unicode="&#x2020;" horiz-adv-x="1255" 
d="M651 -530h-125q-19 346 -45.5 573t-62.5 365q42 68 77.5 159t67.5 215l-469 -123l21 383l448 -122l-96 436h395l-151 -436l450 122l-20 -383l-430 123q4 -76 29.5 -170t72.5 -204q-61 -275 -101.5 -509.5t-60.5 -428.5z" />
    <glyph glyph-name="degree" unicode="&#xb0;" horiz-adv-x="674" 
d="M338 1321q-69 0 -117.5 -48t-48.5 -116q0 -70 48 -118t118 -48q68 0 116 49t48 117t-48 116t-116 48zM338 1466q129 0 220 -91t91 -220q0 -128 -91.5 -219.5t-221.5 -91.5q-129 0 -219 90.5t-90 220.5q0 131 90.5 221t220.5 90z" />
    <glyph glyph-name="cent" unicode="&#xa2;" horiz-adv-x="1280" 
d="M889 1384l-8 -139q38 -3 75.5 -12.5t75.5 -26.5l62 -354q-89 33 -164 49.5t-135 16.5q-105 0 -163.5 -59.5t-58.5 -166.5t57 -163t167 -56q54 0 123 9.5t151 27.5l-80 -311q-37 -14 -70.5 -20.5t-64.5 -6.5h-12l-6 -172h-324l6 186q-164 38 -249 167.5t-85 342.5
q0 208 98.5 342.5t288.5 186.5l9 159h307z" />
    <glyph glyph-name="sterling" unicode="&#xa3;" horiz-adv-x="1280" 
d="M1176 29q-22 -23 -54.5 -33t-93.5 -10q-157 0 -350 40t-242 40q-68 0 -140 -16.5t-149 -49.5l19 295q82 37 121 88t39 121q0 7 -1 17t-4 30h-251l57 299h149q-41 46 -61 91.5t-20 92.5q0 158 165.5 255t444.5 97q82 0 161 -10.5t156 -32.5l41 -313q-123 43 -209.5 63.5
t-146.5 20.5q-89 0 -140 -41.5t-51 -114.5q0 -31 10 -57.5t31 -50.5h402l-47 -299h-319q0 -6 0.5 -14t0.5 -23q0 -50 -16 -93t-49 -79q89 -26 166 -38.5t147 -12.5q75 0 148 10t143 31z" />
    <glyph glyph-name="section" unicode="&#xa7;" horiz-adv-x="1255" 
d="M772 209q30 39 43.5 70t13.5 57q0 70 -135 176l-8 6l-174 135q-36 -40 -52 -69.5t-16 -57.5q0 -60 94 -134l9 -7zM129 -96q97 -52 183.5 -79.5t154.5 -27.5q55 0 86 15.5t31 42.5q0 53 -163 150q-68 41 -108 67q-120 76 -180.5 168t-60.5 198q0 118 57.5 212.5
t175.5 170.5q-44 50 -66 106.5t-22 119.5q0 152 131 247t346 95q123 0 234.5 -27t216.5 -82l-19 -330q-93 52 -180.5 79.5t-157.5 27.5q-50 0 -81 -16.5t-31 -41.5q0 -58 179 -167q53 -33 83 -52q134 -84 193 -170.5t59 -193.5t-62.5 -205t-177.5 -172q44 -51 66 -105
t22 -112q0 -158 -127.5 -253t-343.5 -95q-122 0 -239 22t-228 66z" />
    <glyph glyph-name="bullet" unicode="&#x2022;" horiz-adv-x="1208" 
d="M307 762q0 123 87 209t210 86q122 0 208.5 -86.5t86.5 -208.5t-87.5 -209.5t-209.5 -87.5q-123 0 -209 87t-86 210z" />
    <glyph glyph-name="paragraph" unicode="&#xb6;" 
d="M997 1479v-123h-106v-1356h-176v1356h-150v-1356h-174v784q-164 6 -263 101t-99 245q0 158 106 253.5t283 95.5h579z" />
    <glyph glyph-name="germandbls" unicode="&#xdf;" horiz-adv-x="1309" 
d="M74 0q21 248 37 632q19 458 67 548q53 100 184 152t330 52q223 0 320.5 -70t97.5 -231q0 -101 -9 -140.5t-32 -55.5q-25 -19 -76 -30q-15 -3 -22 -5q-42 -13 -57 -27.5t-15 -40.5q0 -41 100 -112q45 -32 70 -51q112 -86 148 -152.5t36 -163.5q0 -146 -112 -233.5
t-301 -87.5q-43 0 -102 5t-130 15l-20 295q40 -14 73.5 -21.5t61.5 -7.5q64 0 102.5 30t38.5 79q0 64 -114 147q-15 11 -23 17q-72 54 -100.5 104t-28.5 121q0 80 39.5 125.5t124.5 62.5q6 23 9 41.5t3 32.5q0 50 -25 75t-75 25q-82 0 -116.5 -57t-43.5 -230l-41 -843h-399z
" />
    <glyph glyph-name="registered" unicode="&#xae;" horiz-adv-x="1706" 
d="M762 1022v-219h80q74 0 110.5 26.5t36.5 79.5q0 59 -38 86t-122 27h-67zM537 1163h329q174 0 264.5 -60t90.5 -177q0 -81 -46 -139t-128 -82l182 -361h-248l-154 326h-65v-326h-225v819zM854 1350q-124 0 -232 -44t-194 -128q-90 -90 -137 -203t-47 -238q0 -121 44 -229
t130 -195q87 -90 199 -138t235 -48q121 0 232.5 45.5t199.5 130.5t134 196.5t46 237.5q0 124 -44 233.5t-128 194.5q-89 91 -200.5 138t-237.5 47zM852 1485q156 0 294 -57.5t245 -167.5q101 -104 154.5 -238t53.5 -285q0 -155 -56.5 -291t-164.5 -239q-109 -105 -245 -161
t-281 -56q-151 0 -287 58t-243 169q-105 108 -160.5 241.5t-55.5 278.5q0 151 59 290t169 247q105 104 237 157.5t281 53.5z" />
    <glyph glyph-name="copyright" unicode="&#xa9;" horiz-adv-x="1706" 
d="M1221 891h-213q-7 67 -47.5 104t-108.5 37q-83 0 -129.5 -77t-46.5 -216q0 -140 47.5 -212t138.5 -72q67 0 106.5 40.5t45.5 114.5h215q-6 -143 -107.5 -230t-263.5 -87q-190 0 -301 117.5t-111 320.5q0 207 111 329t299 122q157 0 257 -80t108 -211zM854 1350
q-126 0 -235 -45.5t-195 -133.5q-88 -89 -135 -201t-47 -233q0 -119 47 -230.5t135 -199.5q87 -87 198 -133.5t232 -46.5t234 47t202 135q86 84 130 193t44 235q0 125 -45 235.5t-131 196.5q-88 89 -198.5 135t-235.5 46zM852 1485q154 0 289.5 -56t242.5 -163
q106 -106 160.5 -240.5t54.5 -288.5q0 -153 -54 -287t-159 -237q-109 -108 -247 -165.5t-287 -57.5q-148 0 -283.5 57t-242.5 164t-163.5 241.5t-56.5 284.5q0 148 57.5 285t164.5 246q105 106 238 161.5t286 55.5z" />
    <glyph glyph-name="trademark" unicode="&#x2122;" horiz-adv-x="1706" 
d="M797 1464h223l113 -303l114 303h221v-551h-155v390l-146 -390h-65l-150 390v-390h-155v551zM188 1464h502v-127h-164v-424h-174v424h-164v127z" />
    <glyph glyph-name="acute" unicode="&#xb4;" 
d="M842 1552l-316 -370h-141l197 370h260z" />
    <glyph glyph-name="dieresis" unicode="&#xa8;" 
d="M610 1241v246h226v-246h-226zM260 1241v246h225v-246h-225z" />
    <glyph glyph-name="notequal" unicode="&#x2260;" horiz-adv-x="1706" 
d="M1194 1251l168 -137l-135 -168h225v-221h-377l-180 -227h557v-222h-704l-246 -307l-170 137l135 170h-213v222h360l183 227h-543v221h694z" />
    <glyph glyph-name="AE" unicode="&#xc6;" horiz-adv-x="1901" 
d="M827 1200l-209 -485h283zM494 1192q13 27 30 67t39 97h1315l-14 -313q-81 3 -145.5 5.5t-86.5 2.5l-436 -1q5 -53 15.5 -106t27.5 -106h303q65 0 120 2t103 6l-17 -320q-33 4 -71 5t-116 1h-95h-168q8 -62 19 -117.5t24 -103.5q68 -8 110.5 -11t76.5 -3q51 0 127.5 4.5
t179.5 13.5l-16 -315h-824v18q0 25 -2 48t-8 53l-49 307h-436l-119 -270q-5 -12 -19.5 -53t-35.5 -103h-432z" />
    <glyph glyph-name="Oslash" unicode="&#xd8;" horiz-adv-x="1741" 
d="M174 -158l166 258q-141 101 -206.5 233t-65.5 312q0 352 214.5 546.5t604.5 194.5q129 0 268 -30h2l86 139h283l-146 -227q148 -91 219.5 -229t71.5 -330q0 -350 -216.5 -543t-610.5 -193q-78 0 -146.5 8.5t-132.5 24.5l-108 -164h-283zM733 291q28 -8 60.5 -12.5
t70.5 -4.5q184 0 282.5 111.5t98.5 319.5q0 77 -19 137.5t-61 115.5zM559 414l426 653q-31 6 -60.5 9t-58.5 3q-175 0 -274.5 -108t-99.5 -297q0 -75 16 -138t51 -122z" />
    <glyph glyph-name="infinity" unicode="&#x221e;" horiz-adv-x="1706" 
d="M956 561q43 -67 102 -101t132 -34q90 0 146.5 50.5t56.5 129.5q0 77 -51.5 127.5t-127.5 50.5q-72 0 -131.5 -50.5t-126.5 -172.5zM752 657q-43 67 -101 100.5t-133 33.5q-90 0 -146.5 -50t-56.5 -129q0 -77 51 -127.5t128 -50.5q71 0 132 52.5t126 170.5zM856 442
q-68 -130 -147.5 -193t-176.5 -63q-139 0 -238 121.5t-99 300.5q0 188 87.5 305t227.5 117q90 0 166.5 -56.5t175.5 -199.5q71 132 150 195t174 63q140 0 238.5 -121t98.5 -301q0 -189 -87.5 -306.5t-227.5 -117.5q-91 0 -166 55t-176 201z" />
    <glyph glyph-name="plusminus" unicode="&#xb1;" horiz-adv-x="1706" 
d="M254 213h1198v-231h-1198v231zM735 1241h238v-319h479v-232h-479v-319h-238v319h-481v232h481v319z" />
    <glyph glyph-name="lessequal" unicode="&#x2264;" horiz-adv-x="1706" 
d="M256 213h1196v-229h-1196v229zM1450 1257v-239l-776 -240l776 -239v-240l-1194 379v201z" />
    <glyph glyph-name="greaterequal" unicode="&#x2265;" horiz-adv-x="1706" 
d="M256 213h1196v-229h-1196v229zM258 1257l1192 -378v-201l-1192 -379v240l776 239l-776 240v239z" />
    <glyph glyph-name="yen" unicode="&#xa5;" horiz-adv-x="1280" 
d="M807 174q0 -5 -1 -22t-1 -29q0 -25 3 -93q1 -20 1 -30h-410q6 75 11.5 151t5.5 78l14 285h-156q-128 0 -176.5 -0.5t-78.5 -1.5l10 172q74 -2 133.5 -3t116.5 -1h71l-63 133h-70q-74 0 -112.5 -0.5t-71.5 -1.5l10 168h49h113l-187 377h459q10 -38 20.5 -73t22.5 -69
l121 -348l152 318q11 24 45 104q18 43 28 68h437l-213 -377h120h52l-9 -168q-28 1 -76.5 1.5t-181.5 0.5l-75 -133h73q60 0 120.5 1t131.5 3l-11 -172q-35 1 -86.5 1.5t-176.5 0.5h-150z" />
    <glyph glyph-name="mu" unicode="&#xb5;" horiz-adv-x="1315" 
d="M193 1090h358l-80 -529q-6 -41 -9 -77.5t-3 -65.5q0 -85 35.5 -127.5t107.5 -42.5q88 0 138.5 68.5t74.5 220.5l88 553h357l-175 -1090h-321l18 125q-40 -75 -89.5 -108t-119.5 -33q-59 0 -106.5 31t-77.5 89l-82 -532h-352z" />
    <glyph glyph-name="partialdiff" unicode="&#x2202;" horiz-adv-x="1114" 
d="M766 684q21 113 32 206t11 150q0 87 -29.5 148t-68.5 61q-35 0 -132 -93t-180 -93q-48 0 -80 33.5t-32 83.5q0 69 93 125.5t220 56.5q210 0 332.5 -161t122.5 -441q0 -344 -162.5 -564.5t-417.5 -220.5q-182 0 -299 116.5t-117 299.5q0 203 119.5 336t298.5 133
q101 0 170.5 -42.5t118.5 -133.5zM698 532q0 114 -36.5 176t-104.5 62q-96 0 -160.5 -136.5t-64.5 -346.5q0 -116 36.5 -176t106.5 -60q97 0 160 135.5t63 345.5z" />
    <glyph glyph-name="summation" unicode="&#x2211;" horiz-adv-x="1520" 
d="M72 1473h1335v-302h-838l596 -608l-587 -651h895v-305h-1424v184l684 756l-661 665v261z" />
    <glyph glyph-name="product" unicode="&#x220f;" horiz-adv-x="1645" 
d="M145 1473h1348v-1866h-399v1532h-549v-1532h-400v1866z" />
    <glyph glyph-name="pi" unicode="&#x3c0;" horiz-adv-x="1530" 
d="M1538 1090l-39 -232h-178l-135 -858h-357l134 858h-232l-135 -858h-354l133 858h-27q-42 0 -70.5 -35.5t-36.5 -97.5h-235q33 209 124.5 287t311.5 78h1096z" />
    <glyph glyph-name="integral" unicode="&#x222b;" horiz-adv-x="1249" 
d="M362 -248q99 0 119 667q3 101 4 154q17 523 130.5 753t349.5 230q105 0 170 -53t65 -137q0 -64 -41 -103.5t-106 -39.5q-64 0 -96.5 38.5t-32.5 112.5q0 38 -7.5 49t-25.5 11q-101 0 -124 -667q-2 -60 -3 -91q-11 -329 -30.5 -472.5t-57.5 -244.5q-62 -166 -159.5 -249
t-229.5 -83q-107 0 -171.5 52t-64.5 139q0 65 42 104t112 39q60 0 92.5 -36t32.5 -103q0 -12 -2 -24v-3q0 -24 8 -33.5t26 -9.5z" />
    <glyph glyph-name="ordfeminine" unicode="&#xaa;" horiz-adv-x="877" 
d="M403 623q-32 -7 -62 -10t-58 -3q-120 0 -187 53.5t-67 147.5q0 100 64 156.5t217 89.5q15 3 41 8q169 34 169 80q0 25 -20.5 36t-69.5 11q-67 0 -142 -15.5t-147 -43.5l35 208q69 19 145 28t158 9q169 0 249.5 -46t80.5 -142q0 -15 -1 -34.5t-3 -41.5l-19 -367
q-1 -10 -1.5 -31t-0.5 -89h-294q2 41 7 102.5t5 75.5l6 127q-24 -8 -43 -13.5t-37 -9.5l-63 -14q-42 -10 -63 -28.5t-21 -45.5q0 -25 20 -40t53 -15q14 0 38.5 3t58.5 9z" />
    <glyph glyph-name="ordmasculine" unicode="&#xba;" horiz-adv-x="971" 
d="M489 1182q-70 0 -105.5 -50.5t-35.5 -150.5q0 -89 33 -132.5t100 -43.5q70 0 106 47.5t36 140.5q0 101 -31.5 145t-102.5 44zM47 977q0 186 121.5 292.5t333.5 106.5q203 0 313.5 -96t110.5 -272q0 -188 -121 -295t-332 -107q-205 0 -315.5 96t-110.5 275z" />
    <glyph glyph-name="Omega" unicode="&#x3a9;" horiz-adv-x="1645" 
d="M1266 307h333v-307h-636v352q92 82 142 196.5t50 246.5q0 182 -90 288.5t-244 106.5q-153 0 -243.5 -107.5t-90.5 -289.5q0 -132 50 -246.5t143 -194.5v-352h-635v307h332q-132 95 -200 229.5t-68 299.5q0 303 195.5 489t516.5 186q323 0 518 -185t195 -490
q0 -165 -68 -299.5t-200 -229.5z" />
    <glyph glyph-name="ae" unicode="&#xe6;" horiz-adv-x="1765" 
d="M1065 651h266v8q0 87 -30 129.5t-91 42.5q-56 0 -95.5 -48t-49.5 -132zM1554 14q-98 -21 -187.5 -32t-170.5 -11q-259 0 -398.5 118t-150.5 345q-35 -18 -91 -31q-4 -1 -7 -2l-68 -18q-54 -14 -82 -41t-28 -63q0 -38 27 -59t75 -21q31 0 72.5 6.5t91.5 19.5l-62 -225
q-58 -13 -100 -19t-72 -6q-180 0 -274 74t-94 215q0 142 86.5 224t285.5 126q17 4 48 11q235 51 235 112q0 39 -26.5 54.5t-96.5 15.5q-89 0 -186.5 -21.5t-196.5 -62.5l45 297q89 26 192.5 39.5t217.5 13.5q99 0 174.5 -13.5t136.5 -41.5q52 27 124 40t165 13
q234 0 349.5 -105t115.5 -317q0 -37 -4.5 -87t-13.5 -111l-621 -1q-1 -5 -1.5 -11t-0.5 -19q0 -87 61 -128.5t189 -41.5q68 0 140.5 9t145.5 26z" />
    <glyph glyph-name="oslash" unicode="&#xf8;" horiz-adv-x="1294" 
d="M170 -137l106 192q-102 62 -158.5 177.5t-56.5 263.5q0 275 165.5 425t471.5 150q29 0 61.5 -3t69.5 -9l58 104h237l-100 -182q104 -69 156.5 -178t52.5 -258q0 -273 -162.5 -423.5t-456.5 -150.5q-34 0 -70 3.5t-71 9.5l-65 -121h-238zM653 795q-96 0 -143 -72t-47 -217
q0 -130 44 -193t134 -63q94 0 142 69.5t48 204.5q0 145 -41.5 208t-136.5 63z" />
    <glyph glyph-name="questiondown" unicode="&#xbf;" horiz-adv-x="1143" 
d="M887 1370l-17 -366h-428l15 366h430zM844 913v-16q0 -91 -33.5 -161t-116.5 -146q-17 -16 -48 -45q-132 -122 -132 -172q0 -40 46 -63t126 -23q78 0 167 12t224 43l-63 -340q-112 -16 -216.5 -24.5t-201.5 -8.5q-264 0 -402.5 88t-138.5 256q0 157 245 361q21 17 32 26
q67 58 89.5 103t25.5 110h397z" />
    <glyph glyph-name="exclamdown" unicode="&#xa1;" horiz-adv-x="739" 
d="M582 895l-7 -433q-1 -40 -1.5 -90t-0.5 -159q0 -84 0.5 -128.5t1.5 -84.5h-462q18 151 31.5 285t21.5 240l22 370h394zM627 1356l-19 -365h-436l21 365h434z" />
    <glyph glyph-name="logicalnot" unicode="&#xac;" horiz-adv-x="1706" 
d="M254 866h1198v-501h-229v274h-969v227z" />
    <glyph glyph-name="radical" unicode="&#x221a;" horiz-adv-x="1366" 
d="M1155 1714h215v-149h-96l-590 -1606h-119l-307 846l-145 -55l-37 129l360 127l223 -635z" />
    <glyph glyph-name="florin" unicode="&#x192;" horiz-adv-x="1280" 
d="M154 799h286q8 307 143.5 465.5t391.5 158.5q57 0 123 -14.5t141 -44.5l-94 -356q-37 35 -76 52t-82 17q-81 0 -119.5 -64t-38.5 -202v-12h258v-267h-284l-15 -163q-20 -229 -44.5 -360t-57.5 -199q-65 -134 -175.5 -197.5t-277.5 -63.5q-80 0 -139 8t-108 25l53 360
q14 -5 39 -15q69 -29 98 -29q97 0 144 80t67 296l23 258h-275z" />
    <glyph glyph-name="approxequal" unicode="&#x2248;" horiz-adv-x="1706" 
d="M1530 602v-254q-105 -71 -196 -104t-181 -33t-283 65.5t-309 65.5q-82 0 -172.5 -37t-210.5 -121v254q111 74 209 109t195 35q115 0 304.5 -65.5t272.5 -65.5t170 35t201 116zM1530 1036v-254q-107 -70 -197 -102.5t-178 -32.5q-91 0 -284 64.5t-310 64.5q-84 0 -172 -36
t-211 -122v256q112 74 209 108t195 34q115 0 304.5 -65.5t272.5 -65.5t170.5 35.5t200.5 115.5z" />
    <glyph glyph-name="Delta" unicode="&#x2206;" horiz-adv-x="1468" 
d="M733 1059l-262 -774h526zM537 1473h395l541 -1473h-1475z" />
    <glyph glyph-name="guillemotleft" unicode="&#xab;" horiz-adv-x="938" 
d="M915 889l-167 -369l141 -366h-242l-170 366l195 369h243zM498 889l-168 -369l139 -366h-240l-170 366l195 369h244z" />
    <glyph glyph-name="guillemotright" unicode="&#xbb;" horiz-adv-x="938" 
d="M31 154l168 368l-142 367h242l170 -367l-195 -368h-243zM449 154l167 368l-139 367h240l170 -367l-195 -368h-243z" />
    <glyph glyph-name="ellipsis" unicode="&#x2026;" horiz-adv-x="2048" 
d="M158 389h389l-18 -389h-391zM840 389h389l-18 -389h-391zM1524 389h389l-18 -389h-391z" />
    <glyph glyph-name="nonbreakingspace" unicode="&#xa0;" horiz-adv-x="1280" 
 />
    <glyph glyph-name="Agrave" unicode="&#xc0;" horiz-adv-x="1511" 
d="M498 1192q11 22 27 59.5t42 104.5l539 -1q5 -37 13 -72.5t20 -70.5l397 -1212h-444q-3 25 -8.5 54t-14.5 65l-74 307h-485l-113 -270q-15 -38 -28.5 -77.5t-24.5 -78.5h-448zM809 1167l-182 -432h293zM553 1837h258l197 -370h-140z" />
    <glyph glyph-name="Atilde" unicode="&#xc3;" horiz-adv-x="1511" 
d="M498 1192q11 22 27 59.5t42 104.5l539 -1q5 -37 13 -72.5t20 -70.5l397 -1212h-444q-3 25 -8.5 54t-14.5 65l-74 307h-485l-113 -270q-15 -38 -28.5 -77.5t-24.5 -78.5h-448zM809 1167l-182 -432h293zM1163 1788q-26 -124 -77 -182.5t-132 -58.5q-21 0 -39 2.5t-35 7.5
l-87 24q-28 8 -42 10.5t-24 2.5q-34 0 -55 -19t-33 -61h-111q25 122 75 179.5t130 57.5q21 0 43.5 -3.5t44.5 -10.5l90 -25q13 -4 26.5 -6t29.5 -2q32 0 53.5 21t32.5 63h110z" />
    <glyph glyph-name="Otilde" unicode="&#xd5;" horiz-adv-x="1741" 
d="M506 678q0 -197 91 -295t273 -98q173 0 268 108t95 305q0 183 -92.5 278t-270.5 95q-172 0 -268 -103.5t-96 -289.5zM852 -29q-373 0 -578.5 179t-205.5 501q0 343 213 538t587 195q388 0 595.5 -175.5t207.5 -503.5q0 -346 -215.5 -540t-603.5 -194zM1235 1788
q-26 -124 -77 -182.5t-132 -58.5q-21 0 -39 2.5t-35 7.5l-87 24q-28 8 -42 10.5t-24 2.5q-34 0 -55 -19t-33 -61h-111q25 122 75 179.5t130 57.5q21 0 43.5 -3.5t44.5 -10.5l90 -25q13 -4 26.5 -6t29.5 -2q32 0 53.5 21t32.5 63h110z" />
    <glyph glyph-name="OE" unicode="&#x152;" horiz-adv-x="2138" 
d="M1018 289q15 321 22.5 481t13.5 295q-58 5 -110.5 7.5t-93.5 2.5q-185 0 -285 -110.5t-100 -315.5q0 -190 103.5 -277t330.5 -87q47 0 72 1t47 3zM1294 0q-60 0 -216.5 -5t-252.5 -5q-374 0 -565.5 167t-191.5 494q0 341 196 527t557 186q39 0 168 -4t219 -4h912
l-15 -313q-80 3 -144.5 5.5t-86.5 2.5l-430 -1q-8 -78 -10 -116t-2 -70v-26h352q68 0 122.5 2t100.5 6l-16 -319q-34 3 -72.5 4t-116.5 1h-94h-293q-6 -42 -9 -82t-3 -81q0 -24 0.5 -36.5t1.5 -20.5q59 -7 128.5 -10t168.5 -3q103 0 197.5 4t177.5 12l-17 -315h-766z" />
    <glyph glyph-name="oe" unicode="&#x153;" horiz-adv-x="1915" 
d="M1212 653h279v17q0 85 -31.5 128.5t-93.5 43.5q-61 0 -102 -50.5t-52 -138.5zM651 793q-98 0 -147 -71.5t-49 -215.5q0 -128 45 -190t137 -62q98 0 146 70t48 213q0 133 -43 194.5t-137 61.5zM1704 14q-99 -21 -186.5 -32t-165.5 -11q-130 0 -218.5 24.5t-152.5 76.5
q-60 -50 -155 -75.5t-220 -25.5q-255 0 -396.5 139.5t-141.5 391.5q0 268 159.5 418.5t444.5 150.5q123 0 208.5 -27.5t141.5 -85.5q61 59 148 86t214 27q236 0 352.5 -104.5t116.5 -315.5q0 -39 -4.5 -89.5t-13.5 -110.5l-621 -1q-1 -5 -1.5 -11t-0.5 -19
q0 -89 61.5 -129.5t194.5 -40.5q63 0 133 8.5t146 26.5z" />
    <glyph glyph-name="endash" unicode="&#x2013;" 
d="M1024 674l-18 -277h-1006l18 277h1006z" />
    <glyph glyph-name="emdash" unicode="&#x2014;" horiz-adv-x="2048" 
d="M2048 674l-18 -277h-2030l18 277h2030z" />
    <glyph glyph-name="quotedblleft" unicode="&#x201c;" horiz-adv-x="1128" 
d="M942 942h-340l240 414h239zM455 942h-342l239 414h242z" />
    <glyph glyph-name="quotedblright" unicode="&#x201d;" horiz-adv-x="1128" 
d="M776 1356h340l-239 -414h-240zM287 1356h340l-240 -414h-240z" />
    <glyph glyph-name="quoteleft" unicode="&#x2018;" horiz-adv-x="639" 
d="M455 942h-342l239 414h242z" />
    <glyph glyph-name="quoteright" unicode="&#x2019;" horiz-adv-x="639" 
d="M287 1356h340l-240 -414h-240z" />
    <glyph glyph-name="divide" unicode="&#xf7;" horiz-adv-x="1706" 
d="M854 371q68 0 116 -48.5t48 -117.5q0 -68 -47.5 -116t-116.5 -48t-117.5 48t-48.5 116t49 117t117 49zM254 727h1198v-231h-1198v231zM854 1182q67 0 115.5 -49t48.5 -117t-48.5 -116t-117.5 -48t-116.5 48t-47.5 116t49 117t117 49z" />
    <glyph glyph-name="lozenge" unicode="&#x25ca;" horiz-adv-x="1012" 
d="M506 1409l-385 -817l385 -825l385 825zM506 1653l500 -1061l-500 -1069l-500 1069z" />
    <glyph glyph-name="ydieresis" unicode="&#xff;" horiz-adv-x="1143" 
d="M352 0l-231 672q-27 80 -60.5 171.5t-74.5 198.5h430q15 -66 32.5 -132t36.5 -134l113 -401l102 340q23 77 45 158.5t43 168.5h402l-414 -1042q-107 -270 -232 -365.5t-351 -95.5q-54 0 -107.5 7t-110.5 22l-18 258q46 -9 83.5 -13.5t68.5 -5.5q94 0 151.5 45.5
t91.5 147.5zM669 1241v246h226v-246h-226zM319 1241v246h225v-246h-225z" />
    <glyph glyph-name="Ydieresis" unicode="&#x178;" horiz-adv-x="1171" 
d="M768 174q0 -5 -1 -22t-1 -29q0 -25 3 -93q1 -20 1 -30h-427q5 72 10 147.5t5 81.5l15 291l-412 836h471q13 -53 22.5 -84t18.5 -58l123 -348l149 317q10 20 25.5 55t50.5 118h443l-482 -842zM696 1526v246h226v-246h-226zM346 1526v246h225v-246h-225z" />
    <glyph glyph-name="fraction" unicode="&#x2215;" horiz-adv-x="342" 
d="M-342 -14l809 1398h215l-811 -1398h-213z" />
    <glyph glyph-name="currency" unicode="&#xa4;" horiz-adv-x="1280" 
d="M1237 1055q-74 23 -146 36t-130 13q-44 0 -77.5 -6t-58.5 -19q-49 -25 -84.5 -71.5t-52.5 -108.5q74 1 192 1.5t259 0.5l-53 -159q-36 0 -202.5 1.5t-232.5 1.5q-4 -26 -6 -54.5t-2 -61.5q64 1 167.5 1.5t240.5 0.5l-54 -162q-19 1 -93 1.5t-251 0.5q15 -100 77.5 -160.5
t154.5 -60.5q87 0 176 16t166 45l-49 -303q-91 -17 -176.5 -27t-155.5 -10q-272 0 -429 127.5t-190 372.5q-98 0 -134.5 -0.5t-51.5 -1.5l10 162q2 0 59 -1t105 -1q0 29 1.5 58t4.5 56q-44 0 -101.5 -1t-62.5 -1l11 160q1 0 90.5 -1t95.5 -1q65 232 241 358.5t439 126.5
q62 0 137.5 -10t159.5 -31z" />
    <glyph glyph-name="guilsinglleft" unicode="&#x2039;" horiz-adv-x="524" 
d="M494 889l-168 -369l141 -366h-240l-172 366l195 369h244z" />
    <glyph glyph-name="guilsinglright" unicode="&#x203a;" horiz-adv-x="524" 
d="M31 154l168 368l-142 367h242l170 -367l-195 -368h-243z" />
    <glyph glyph-name="fi" unicode="&#xf001;" horiz-adv-x="1346" 
d="M164 760h-144l17 282h141q6 190 100.5 266t335.5 76q46 0 85 -3.5t73 -10.5l16 -215q-25 5 -46 7.5t-40 2.5q-70 0 -110 -32t-43 -90l219 -1l-14 -282h-191q-8 -161 -13 -339t-7 -421h-420q21 252 31 432t10 297v31zM1276 1026q-26 -230 -38.5 -488.5t-12.5 -537.5h-414
q25 233 37 489.5t12 536.5h416zM870 1116l13 240h405l-12 -240h-406z" />
    <glyph glyph-name="fl" unicode="&#xf002;" horiz-adv-x="1346" 
d="M1292 1356q-34 -413 -51.5 -744.5t-17.5 -570.5v-41h-412q31 434 48 767t22 589h411zM164 760h-144l17 282h141q6 190 100.5 266t335.5 76q46 0 85 -3.5t73 -10.5l16 -215q-25 5 -46 7.5t-40 2.5q-70 0 -110 -32t-43 -90l219 -1l-14 -282h-191q-8 -161 -13 -339t-7 -421
h-420q21 252 31 432t10 297v31z" />
    <glyph glyph-name="daggerdbl" unicode="&#x2021;" horiz-adv-x="1255" 
d="M369 -541l153 437l-452 -123l20 383l432 -123q-14 95 -40 188.5t-64 186.5q68 149 101 235t44 139l-469 -123l21 383l448 -122l-96 436h395l-151 -436l450 122l-20 -383l-430 123q6 -77 31 -169.5t71 -204.5q-71 -155 -103 -240t-40 -135l467 123l-21 -383l-446 123
l96 -437h-397z" />
    <glyph glyph-name="glyph195" unicode="&#xb7;" horiz-adv-x="639" 
d="M131 678q0 79 54.5 133.5t133.5 54.5q80 0 134.5 -54.5t54.5 -133.5q0 -80 -54.5 -134.5t-134.5 -54.5q-79 0 -133.5 54.5t-54.5 134.5z" />
    <glyph glyph-name="quotesinglbase" unicode="&#x201a;" horiz-adv-x="639" 
d="M193 207h339l-239 -414h-240z" />
    <glyph glyph-name="quotedblbase" unicode="&#x201e;" horiz-adv-x="1128" 
d="M682 207h342l-242 -414h-239zM193 207h339l-239 -414h-240z" />
    <glyph glyph-name="perthousand" unicode="&#x2030;" horiz-adv-x="2650" 
d="M2333 434q0 83 -26 124.5t-77 41.5q-65 0 -104 -66.5t-39 -179.5q0 -83 25 -124.5t75 -41.5q66 0 106 67t40 179zM567 1012q0 83 -25 124.5t-75 41.5q-66 0 -105.5 -67t-39.5 -179q0 -83 25.5 -124.5t76.5 -41.5q65 0 104 66.5t39 179.5zM1520 434q0 83 -25 124.5
t-76 41.5q-65 0 -104 -66.5t-39 -179.5q0 -83 25 -124.5t75 -41.5q66 0 105 66.5t39 179.5zM2177 -18q-160 0 -247 102t-87 291q0 200 101 316t274 116q167 0 261.5 -95t94.5 -263q0 -219 -106 -343t-291 -124zM414 559q-160 0 -247 102.5t-87 290.5q0 200 101 316t274 116
q167 0 260.5 -94.5t93.5 -263.5q0 -219 -105.5 -343t-289.5 -124zM672 -14h-213l702 1398h217zM1366 -18q-160 0 -247 102t-87 291q0 200 101 316t274 116q167 0 261.5 -95t94.5 -263q0 -219 -106 -343t-291 -124z" />
    <glyph glyph-name="Acircumflex" unicode="&#xc2;" horiz-adv-x="1511" 
d="M498 1192q11 22 27 59.5t42 104.5l539 -1q5 -37 13 -72.5t20 -70.5l397 -1212h-444q-3 25 -8.5 54t-14.5 65l-74 307h-485l-113 -270q-15 -38 -28.5 -77.5t-24.5 -78.5h-448zM809 1167l-182 -432h293zM530 1467l197 370h238l196 -370h-141l-174 219l-174 -219h-142z" />
    <glyph glyph-name="Ecircumflex" unicode="&#xca;" horiz-adv-x="1270" 
d="M76 0q27 250 44 589.5t23 766.5h1090l-16 -314q-82 4 -145 6.5t-85 2.5l-430 -1q-8 -78 -10 -116t-2 -70v-26h352q69 0 123 2t100 6l-16 -319q-34 3 -72 4t-117 1h-94h-293q-6 -42 -9 -82t-3 -81q0 -24 0.5 -36t1.5 -21q59 -7 127.5 -10t167.5 -3q104 0 199 4t178 12
l-16 -315h-1098zM405 1467l197 370h238l196 -370h-141l-174 219l-174 -219h-142z" />
    <glyph glyph-name="Aacute" unicode="&#xc1;" horiz-adv-x="1511" 
d="M498 1192q11 22 27 59.5t42 104.5l539 -1q5 -37 13 -72.5t20 -70.5l397 -1212h-444q-3 25 -8.5 54t-14.5 65l-74 307h-485l-113 -270q-15 -38 -28.5 -77.5t-24.5 -78.5h-448zM809 1167l-182 -432h293zM1141 1837l-316 -370h-141l197 370h260z" />
    <glyph glyph-name="Edieresis" unicode="&#xcb;" horiz-adv-x="1270" 
d="M76 0q27 250 44 589.5t23 766.5h1090l-16 -314q-82 4 -145 6.5t-85 2.5l-430 -1q-8 -78 -10 -116t-2 -70v-26h352q69 0 123 2t100 6l-16 -319q-34 3 -72 4t-117 1h-94h-293q-6 -42 -9 -82t-3 -81q0 -24 0.5 -36t1.5 -21q59 -7 127.5 -10t167.5 -3q104 0 199 4t178 12
l-16 -315h-1098zM784 1526v246h226v-246h-226zM434 1526v246h225v-246h-225z" />
    <glyph glyph-name="Egrave" unicode="&#xc8;" horiz-adv-x="1270" 
d="M76 0q27 250 44 589.5t23 766.5h1090l-16 -314q-82 4 -145 6.5t-85 2.5l-430 -1q-8 -78 -10 -116t-2 -70v-26h352q69 0 123 2t100 6l-16 -319q-34 3 -72 4t-117 1h-94h-293q-6 -42 -9 -82t-3 -81q0 -24 0.5 -36t1.5 -21q59 -7 127.5 -10t167.5 -3q104 0 199 4t178 12
l-16 -315h-1098zM428 1837h258l197 -370h-140z" />
    <glyph glyph-name="Iacute" unicode="&#xcd;" horiz-adv-x="666" 
d="M516 0h-436q28 256 46 601t24 755h436q-6 -49 -11 -109.5t-12 -171.5l-35 -635q-4 -88 -7 -198t-5 -242zM674 1837l-316 -370h-141l197 370h260z" />
    <glyph glyph-name="Icircumflex" unicode="&#xce;" horiz-adv-x="666" 
d="M516 0h-436q28 256 46 601t24 755h436q-6 -49 -11 -109.5t-12 -171.5l-35 -635q-4 -88 -7 -198t-5 -242zM63 1467l197 370h238l196 -370h-141l-174 219l-174 -219h-142z" />
    <glyph glyph-name="Idieresis" unicode="&#xcf;" horiz-adv-x="666" 
d="M516 0h-436q28 256 46 601t24 755h436q-6 -49 -11 -109.5t-12 -171.5l-35 -635q-4 -88 -7 -198t-5 -242zM442 1526v246h226v-246h-226zM92 1526v246h225v-246h-225z" />
    <glyph glyph-name="Igrave" unicode="&#xcc;" horiz-adv-x="666" 
d="M516 0h-436q28 256 46 601t24 755h436q-6 -49 -11 -109.5t-12 -171.5l-35 -635q-4 -88 -7 -198t-5 -242zM86 1837h258l197 -370h-140z" />
    <glyph glyph-name="Oacute" unicode="&#xd3;" horiz-adv-x="1741" 
d="M506 678q0 -197 91 -295t273 -98q173 0 268 108t95 305q0 183 -92.5 278t-270.5 95q-172 0 -268 -103.5t-96 -289.5zM852 -29q-373 0 -578.5 179t-205.5 501q0 343 213 538t587 195q388 0 595.5 -175.5t207.5 -503.5q0 -346 -215.5 -540t-603.5 -194zM1213 1837
l-316 -370h-141l197 370h260z" />
    <glyph glyph-name="Ocircumflex" unicode="&#xd4;" horiz-adv-x="1741" 
d="M506 678q0 -197 91 -295t273 -98q173 0 268 108t95 305q0 183 -92.5 278t-270.5 95q-172 0 -268 -103.5t-96 -289.5zM852 -29q-373 0 -578.5 179t-205.5 501q0 343 213 538t587 195q388 0 595.5 -175.5t207.5 -503.5q0 -346 -215.5 -540t-603.5 -194zM602 1467l197 370
h238l196 -370h-141l-174 219l-174 -219h-142z" />
    <glyph glyph-name="apple" unicode="&#xf000;" horiz-adv-x="1618" 
d="M836 1216q-1 6 -1.5 14t-0.5 23q0 124 95 229.5t236 131.5q1 -10 1.5 -23t0.5 -39q0 -131 -103.5 -234.5t-203.5 -103.5h-8q-3 0 -7.5 1t-8.5 1zM1505 403q-114 -247 -205 -342.5t-204 -95.5q-50 0 -131.5 33t-122.5 33q-45 0 -131 -33t-127 -33q-64 0 -128.5 44
t-129.5 132q-102 140 -157.5 295.5t-55.5 300.5q0 219 125 356.5t323 137.5q68 0 155 -34t124 -34q34 0 121.5 35t152.5 35q110 0 198 -40t161 -124q-102 -65 -151.5 -145.5t-49.5 -182.5q0 -113 60 -200t173 -138z" />
    <glyph glyph-name="Ograve" unicode="&#xd2;" horiz-adv-x="1741" 
d="M506 678q0 -197 91 -295t273 -98q173 0 268 108t95 305q0 183 -92.5 278t-270.5 95q-172 0 -268 -103.5t-96 -289.5zM852 -29q-373 0 -578.5 179t-205.5 501q0 343 213 538t587 195q388 0 595.5 -175.5t207.5 -503.5q0 -346 -215.5 -540t-603.5 -194zM625 1837h258
l197 -370h-140z" />
    <glyph glyph-name="Uacute" unicode="&#xda;" horiz-adv-x="1479" 
d="M559 1356q-8 -68 -14 -139t-8 -141l-27 -525q-1 -11 -1.5 -25t-0.5 -41q0 -101 51.5 -149.5t157.5 -48.5q117 0 173 58.5t62 189.5l23 475q5 99 6.5 151.5t1.5 98.5q0 39 -0.5 59t-1.5 37h434q-8 -64 -14.5 -133t-11.5 -149l-25 -472q-2 -29 -4 -83q-8 -203 -45 -290
q-55 -124 -213.5 -191t-401.5 -67q-286 0 -445 109t-159 303q0 49 15.5 372.5t17.5 599.5zM1082 1837l-316 -370h-141l197 370h260z" />
    <glyph glyph-name="Ucircumflex" unicode="&#xdb;" horiz-adv-x="1479" 
d="M559 1356q-8 -68 -14 -139t-8 -141l-27 -525q-1 -11 -1.5 -25t-0.5 -41q0 -101 51.5 -149.5t157.5 -48.5q117 0 173 58.5t62 189.5l23 475q5 99 6.5 151.5t1.5 98.5q0 39 -0.5 59t-1.5 37h434q-8 -64 -14.5 -133t-11.5 -149l-25 -472q-2 -29 -4 -83q-8 -203 -45 -290
q-55 -124 -213.5 -191t-401.5 -67q-286 0 -445 109t-159 303q0 49 15.5 372.5t17.5 599.5zM471 1467l197 370h238l196 -370h-141l-174 219l-174 -219h-142z" />
    <glyph glyph-name="Ugrave" unicode="&#xd9;" horiz-adv-x="1479" 
d="M559 1356q-8 -68 -14 -139t-8 -141l-27 -525q-1 -11 -1.5 -25t-0.5 -41q0 -101 51.5 -149.5t157.5 -48.5q117 0 173 58.5t62 189.5l23 475q5 99 6.5 151.5t1.5 98.5q0 39 -0.5 59t-1.5 37h434q-8 -64 -14.5 -133t-11.5 -149l-25 -472q-2 -29 -4 -83q-8 -203 -45 -290
q-55 -124 -213.5 -191t-401.5 -67q-286 0 -445 109t-159 303q0 49 15.5 372.5t17.5 599.5zM494 1837h258l197 -370h-140z" />
    <glyph glyph-name="dotlessi" unicode="&#x131;" horiz-adv-x="606" 
d="M537 1026q-26 -224 -39 -474.5t-13 -551.5h-415q25 237 38 493t13 533h416z" />
    <glyph glyph-name="circumflex" unicode="&#x2c6;" 
d="M231 1182l197 370h238l196 -370h-141l-174 219l-174 -219h-142z" />
    <glyph glyph-name="tilde" unicode="&#x2dc;" 
d="M864 1503q-26 -124 -77 -182.5t-132 -58.5q-21 0 -39 2.5t-35 7.5l-87 24q-28 8 -42 10.5t-24 2.5q-34 0 -55 -19t-33 -61h-111q25 122 75 179.5t130 57.5q21 0 43.5 -3.5t44.5 -10.5l90 -25q13 -4 26.5 -6t29.5 -2q32 0 53.5 21t32.5 63h110z" />
    <glyph glyph-name="macron" unicode="&#xaf;" 
d="M260 1286v156h576v-156h-576z" />
    <glyph glyph-name="breve" unicode="&#x2d8;" 
d="M238 1520h124q7 -78 51 -114t134 -36t134 36t50 114h125q-11 -157 -86.5 -231.5t-222.5 -74.5t-223 75t-86 231z" />
    <glyph glyph-name="dotaccent" unicode="&#x2d9;" 
d="M430 1237v256h236v-256h-236z" />
    <glyph glyph-name="ring" unicode="&#x2da;" 
d="M426 1430q0 -53 35.5 -88t87.5 -35t87.5 35.5t35.5 87.5q0 50 -36 85t-87 35q-53 0 -88 -34.5t-35 -85.5zM283 1430q0 111 77 188.5t189 77.5q111 0 188.5 -77.5t77.5 -188.5q0 -113 -77 -190t-189 -77t-189 77t-77 190z" />
    <glyph glyph-name="cedilla" unicode="&#xb8;" 
d="M250 -438v127q81 -22 145.5 -32.5t110.5 -10.5q51 0 75.5 18.5t24.5 56.5q0 37 -27 52.5t-92 15.5q-22 0 -35 -0.5t-24 -0.5v212h102v-90h15q116 0 175.5 -48.5t59.5 -144.5q0 -99 -66 -148.5t-200 -49.5q-51 0 -118 11t-146 32z" />
    <glyph glyph-name="hungarumlaut" unicode="&#x2dd;" 
d="M598 1182l154 370h229l-270 -370h-113zM332 1182l114 370h222l-234 -370h-102z" />
    <glyph glyph-name="ogonek" unicode="&#x2db;" 
d="M594 0q-63 -51 -95 -102.5t-32 -102.5q0 -41 20.5 -61.5t61.5 -20.5h102v-172h-106q-118 0 -178 46.5t-60 138.5q0 71 45 136t146 138h96z" />
    <glyph glyph-name="caron" unicode="&#x2c7;" 
d="M231 1552h142l174 -217l174 217h141l-196 -370h-238z" />
    <glyph glyph-name="Lslash" unicode="&#x141;" horiz-adv-x="1126" 
d="M610 1355q-13 -91 -22 -185.5t-14 -202.5q79 45 150.5 88.5t137.5 85.5l-14 -320q-84 -46 -152 -85.5t-137 -82.5q-2 -42 -3 -84t-1 -100q0 -67 0.5 -99t1.5 -58q57 -6 109.5 -8.5t101.5 -2.5q89 0 178.5 4t179.5 12l-16 -317h-1012q17 155 25 253t10 179l-21 -13
q-83 -50 -108 -63l19 320q34 18 66 36.5t60 36.5q10 146 14.5 296.5t4.5 310.5z" />
    <glyph glyph-name="lslash" unicode="&#x142;" horiz-adv-x="631" 
d="M567 1356q-15 -177 -22 -266.5t-12 -167.5q50 29 85 50.5t58 37.5l-10 -236q-28 -14 -62 -33t-84 -49q-11 -167 -16.5 -339.5t-5.5 -352.5h-414l2 26q21 286 28 463q-7 -4 -20 -12q-66 -39 -98 -61l12 231q26 14 55 31t66 39q9 114 15.5 270t11.5 369h411z" />
    <glyph glyph-name="Scaron" unicode="&#x160;" horiz-adv-x="1087" 
d="M45 358q121 -41 219.5 -60t188.5 -19q63 0 101 24t38 64q0 56 -147 169q-24 19 -37 29l-3 2q-329 259 -329 443q0 173 144.5 271.5t402.5 98.5q71 0 158 -10t200 -33l25 -307q-110 29 -178.5 41t-116.5 12q-87 0 -130.5 -23.5t-43.5 -70.5q0 -54 161 -177q28 -22 44 -34
q173 -134 236.5 -226.5t63.5 -195.5q0 -189 -144 -286t-427 -97q-83 0 -182 11.5t-213 33.5zM274 1837h142l174 -217l174 217h141l-196 -370h-238z" />
    <glyph glyph-name="scaron" unicode="&#x161;" horiz-adv-x="909" 
d="M25 326q118 -35 190.5 -49.5t124.5 -14.5q53 0 81 16t28 46q0 31 -116 109q-15 10 -23 15q-163 108 -209 173.5t-46 152.5q0 145 109.5 220t318.5 75q96 0 179 -9.5t155 -29.5l25 -282q-75 21 -137.5 30.5t-120.5 9.5q-44 0 -69.5 -15.5t-25.5 -41.5q0 -38 92 -95
q22 -14 33 -22q139 -89 190.5 -160.5t51.5 -162.5q0 -158 -112.5 -239t-331.5 -81q-93 0 -184 12t-177 35zM174 1552h142l174 -217l174 217h141l-196 -370h-238z" />
    <glyph glyph-name="Zcaron" unicode="&#x17d;" horiz-adv-x="1270" 
d="M37 0l16 322l676 739h-426q-16 0 -48 -2t-126 -8l16 305h1078l-17 -312l-676 -741h406q21 0 79.5 3t153.5 9l-18 -315h-1114zM366 1837h142l174 -217l174 217h141l-196 -370h-238z" />
    <glyph glyph-name="zcaron" unicode="&#x17e;" horiz-adv-x="1067" 
d="M748 281q30 0 85 3t140 9l-15 -293h-927l14 297l485 465h-272q-42 0 -84 -1.5t-84 -4.5l14 286h908l-17 -315l-469 -446h222zM254 1552h142l174 -217l174 217h141l-196 -370h-238z" />
    <glyph glyph-name="brokenbar" unicode="&#xa6;" 
d="M393 408h240v-758h-240v758zM393 1432h240v-758h-240v758z" />
    <glyph glyph-name="Eth" unicode="&#xd0;" horiz-adv-x="1550" 
d="M545 313h43q134 0 198.5 14.5t112.5 49.5q72 51 110 137t38 201q0 169 -62 248t-194 79h-220l-10 -217q114 0 159.5 0.5t78.5 1.5l-13 -262h-237q-2 -77 -3 -136t-1 -116zM94 0q18 158 29 297.5t16 267.5q-55 0 -81 -0.5t-45 -1.5l14 264q19 -1 43 -1.5t82 -0.5
q7 186 12 513v18h657q196 0 282 -21t150 -69q112 -84 170 -219.5t58 -313.5q0 -358 -200 -545.5t-581 -187.5h-606z" />
    <glyph glyph-name="eth" unicode="&#xf0;" horiz-adv-x="1294" 
d="M831 1427l56 -79q73 13 196 46l11 2l47 -161q-30 -6 -112 -25q-26 -7 -40 -10q114 -183 169.5 -350.5t55.5 -329.5q0 -253 -152.5 -401t-414.5 -148q-277 0 -422 128.5t-145 373.5q0 247 145 391t396 144q24 0 48.5 -1.5t48.5 -4.5l-67 124q-26 -5 -75 -16
q-165 -35 -224 -49l-49 158q101 20 151 30.5t91 20.5l-82 114zM653 752q-89 0 -137.5 -68.5t-48.5 -194.5q0 -125 43 -187t131 -62q90 0 137 65t47 191q0 136 -40.5 196t-131.5 60z" />
    <glyph glyph-name="Yacute" unicode="&#xdd;" horiz-adv-x="1171" 
d="M768 174q0 -5 -1 -22t-1 -29q0 -25 3 -93q1 -20 1 -30h-427q5 72 10 147.5t5 81.5l15 291l-412 836h471q13 -53 22.5 -84t18.5 -58l123 -348l149 317q10 20 25.5 55t50.5 118h443l-482 -842zM928 1837l-316 -370h-141l197 370h260z" />
    <glyph glyph-name="yacute" unicode="&#xfd;" horiz-adv-x="1143" 
d="M352 0l-231 672q-27 80 -60.5 171.5t-74.5 198.5h430q15 -66 32.5 -132t36.5 -134l113 -401l102 340q23 77 45 158.5t43 168.5h402l-414 -1042q-107 -270 -232 -365.5t-351 -95.5q-54 0 -107.5 7t-110.5 22l-18 258q46 -9 83.5 -13.5t68.5 -5.5q94 0 151.5 45.5
t91.5 147.5zM901 1552l-316 -370h-141l197 370h260z" />
    <glyph glyph-name="Thorn" unicode="&#xde;" horiz-adv-x="1255" 
d="M578 1356l-23 -256h184q139 0 198 -9.5t105 -31.5q79 -38 125.5 -125.5t46.5 -198.5q0 -217 -129 -348t-342 -131q-14 0 -34.5 1.5t-46.5 4.5l-91 260q120 0 179 41.5t59 124.5q0 69 -42.5 107.5t-119.5 38.5q-25 0 -51 -2.5t-53 -6.5l-21 -385q-4 -95 -7.5 -205
t-5.5 -235h-433q28 247 45.5 589t23.5 767h433z" />
    <glyph glyph-name="thorn" unicode="&#xfe;" horiz-adv-x="1331" 
d="M51 -432q32 190 57.5 643.5t43.5 1144.5l411 -1q-9 -74 -13.5 -146.5t-4.5 -141.5h6q71 4 106 4q301 0 454 -132.5t153 -393.5q0 -259 -134 -416.5t-352 -157.5q-96 0 -168 24t-129 75l-10 -213q-4 -84 -6.5 -154t-4.5 -135h-409zM514 764q-8 -42 -12 -102.5t-4 -135.5
q0 -134 41.5 -196t132.5 -62q92 0 141 71t49 204q0 127 -50.5 189.5t-154.5 62.5q-38 0 -73.5 -8t-69.5 -23z" />
    <glyph glyph-name="minus" unicode="&#x2212;" horiz-adv-x="1706" 
d="M254 729h1198v-235h-1198v235z" />
    <glyph glyph-name="multiply" unicode="&#xd7;" horiz-adv-x="1706" 
d="M430 1214l440 -440l441 440l162 -161l-441 -443l441 -440l-162 -162l-441 441l-440 -441l-162 162l441 440l-441 443z" />
    <glyph glyph-name="onesuperior" unicode="&#xb9;" horiz-adv-x="846" 
d="M610 1356q-9 -100 -20 -273q-1 -25 -2 -39l-13 -217q-2 -50 -4.5 -124t-5.5 -160h-282q8 96 15 201q1 13 1 18l18 377l-167 -95l16 224l166 88h278z" />
    <glyph glyph-name="twosuperior" unicode="&#xb2;" horiz-adv-x="846" 
d="M735 543h-715l15 200q200 124 324 236t124 164q0 27 -30 41t-91 14q-51 0 -123 -11t-157 -32l35 188q96 16 180 23.5t154 7.5q161 0 247 -54.5t86 -156.5q0 -84 -94 -188.5t-303 -251.5h356z" />
    <glyph glyph-name="threesuperior" unicode="&#xb3;" horiz-adv-x="846" 
d="M45 565l-8 207q106 -32 174.5 -45.5t122.5 -13.5q69 0 107 24t38 68q0 41 -40.5 60.5t-125.5 19.5q-26 0 -66 -2t-87 -6l8 190q30 -3 58 -4.5t55 -1.5q86 0 128 19t42 59q0 34 -27.5 47.5t-97.5 13.5q-79 0 -136.5 -9t-109.5 -28l41 193q90 10 159.5 15t127.5 5
q192 0 282 -46t90 -144q0 -87 -64 -139t-193 -72q134 -10 197.5 -55.5t63.5 -133.5q0 -123 -118 -191.5t-334 -68.5q-77 0 -148 10t-139 29z" />
    <glyph glyph-name="onequarter" unicode="&#xbc;" horiz-adv-x="1956" 
d="M1556 358l13 242q-29 -58 -70.5 -118t-97.5 -124h155zM1798 760l-22 -402h149l-10 -163h-150l-12 -195h-235l10 195h-350l12 208q55 58 121 140t164 217h323zM465 -14l809 1398h215l-811 -1398h-213zM581 1356q-6 -71 -11 -142.5t-9 -149.5l-12 -202q-1 -14 -4 -102
t-7 -164h-270q9 92 16 189q0 11 1 16l18 352l-160 -88l15 207l157 84h266z" />
    <glyph glyph-name="onehalf" unicode="&#xbd;" horiz-adv-x="1956" 
d="M1851 0h-684l15 186q193 117 311.5 221.5t118.5 153.5q0 26 -29 38.5t-88 12.5q-48 0 -116.5 -10.5t-151.5 -30.5l35 177q96 14 174.5 21t142.5 7q154 0 235.5 -50.5t81.5 -145.5q0 -80 -88.5 -177t-289.5 -235h342zM465 -14l809 1398h215l-811 -1398h-213zM581 1356
q-6 -71 -11 -142.5t-9 -149.5l-12 -202q-1 -14 -4 -102t-7 -164h-270q9 92 16 189q0 11 1 16l18 352l-160 -88l15 207l157 84h266z" />
    <glyph glyph-name="threequarters" unicode="&#xbe;" horiz-adv-x="1956" 
d="M1556 358l13 242q-29 -58 -70.5 -118t-97.5 -124h155zM1798 760l-22 -402h149l-10 -163h-150l-12 -195h-235l10 195h-350l12 208q55 58 121 140t164 217h323zM465 -14l809 1398h215l-811 -1398h-213zM43 618l-8 193q92 -30 161 -43.5t123 -13.5q66 0 103 22.5t37 63.5
q0 38 -40 56.5t-120 18.5q-25 0 -63 -2t-84 -6l8 178q29 -3 56 -4.5t50 -1.5q85 0 124.5 18t39.5 56q0 31 -26 44t-93 13q-68 0 -125 -8.5t-110 -25.5l41 178q84 10 150.5 15t121.5 5q182 0 269 -43.5t87 -134.5q0 -80 -61 -129t-184 -68q127 -9 187.5 -51.5t60.5 -124.5
q0 -114 -113 -177.5t-318 -63.5q-77 0 -144.5 9t-129.5 27z" />
    <glyph glyph-name="franc" unicode="&#x20a3;" horiz-adv-x="2015" 
d="M76 0q27 250 44 589.5t23 766.5h1006l-14 -313q-81 3 -145.5 5.5t-86.5 2.5l-346 -1q-8 -78 -10 -116t-2 -70v-26h268q98 0 142.5 1.5t80.5 6.5l-16 -319q-34 3 -72 4t-117 1h-94h-209l-12 -264v-12q-8 -172 -8 -256h-432zM1986 748q-11 1 -22.5 1.5t-34.5 0.5
q-100 0 -164 -39.5t-92 -118.5q-19 -54 -28.5 -161t-16.5 -431h-403q24 233 36.5 468t12.5 470v104h354l-8 -145q54 91 123.5 132.5t167.5 41.5q19 0 57 -3q4 -1 6 -1z" />
    <glyph glyph-name="Gbreve" unicode="&#x11e;" horiz-adv-x="1507" 
d="M1407 37q-134 -34 -265 -51t-261 -17q-392 0 -602.5 171.5t-210.5 490.5q0 358 233 558t653 200q88 0 193.5 -10.5t232.5 -30.5l23 -318q-132 30 -225.5 43.5t-167.5 13.5q-242 0 -377 -122.5t-135 -339.5q0 -162 97 -252t271 -90q37 0 73 4.5t73 14.5q5 46 7.5 86.5
t2.5 76.5v35h-168l16 295h570q-17 -183 -26 -342.5t-9 -276.5q0 -46 0.5 -77t1.5 -62zM492 1805h124q7 -78 51 -114t134 -36t134 36t50 114h125q-11 -157 -86.5 -231.5t-222.5 -74.5t-223 75t-86 231z" />
    <glyph glyph-name="gbreve" unicode="&#x11f;" horiz-adv-x="1325" 
d="M188 -119q119 -36 211 -53.5t162 -17.5q125 0 185.5 56.5t60.5 174.5q0 5 -1 16.5t-1 18.5q-62 -38 -133 -56t-158 -18q-209 0 -327.5 121.5t-118.5 333.5q0 295 193 453.5t554 158.5q113 0 220 -13.5t202 -39.5q-26 -358 -45 -738t-25 -408q-36 -173 -167 -253t-379 -80
q-105 0 -207.5 14t-200.5 41zM841 791q-24 7 -48.5 10.5t-49.5 3.5q-129 0 -201.5 -82t-72.5 -229q0 -99 45 -155t123 -56q89 0 137.5 62.5t54.5 184.5zM390 1520h124q7 -78 51 -114t134 -36t134 36t50 114h125q-11 -157 -86.5 -231.5t-222.5 -74.5t-223 75t-86 231z" />
    <glyph glyph-name="Idotaccent" unicode="&#x130;" horiz-adv-x="666" 
d="M516 0h-436q28 256 46 601t24 755h436q-6 -49 -11 -109.5t-12 -171.5l-35 -635q-4 -88 -7 -198t-5 -242zM262 1522v256h236v-256h-236z" />
    <glyph glyph-name="Scedilla" unicode="&#x15e;" horiz-adv-x="1087" 
d="M45 358q121 -41 219.5 -60t188.5 -19q63 0 101 24t38 64q0 56 -147 169q-24 19 -37 29l-3 2q-329 259 -329 443q0 173 144.5 271.5t402.5 98.5q71 0 158 -10t200 -33l25 -307q-110 29 -178.5 41t-116.5 12q-87 0 -130.5 -23.5t-43.5 -70.5q0 -54 161 -177q28 -22 44 -34
q173 -134 236.5 -226.5t63.5 -195.5q0 -189 -144 -286t-427 -97q-83 0 -182 11.5t-213 33.5zM270 -438v127q81 -22 145.5 -32.5t110.5 -10.5q51 0 75.5 18.5t24.5 56.5q0 37 -27 52.5t-92 15.5q-22 0 -35 -0.5t-24 -0.5v212h102v-90h15q116 0 175.5 -48.5t59.5 -144.5
q0 -99 -66 -148.5t-200 -49.5q-51 0 -118 11t-146 32z" />
    <glyph glyph-name="scedilla" unicode="&#x15f;" horiz-adv-x="909" 
d="M25 326q118 -35 190.5 -49.5t124.5 -14.5q53 0 81 16t28 46q0 31 -116 109q-15 10 -23 15q-163 108 -209 173.5t-46 152.5q0 145 109.5 220t318.5 75q96 0 179 -9.5t155 -29.5l25 -282q-75 21 -137.5 30.5t-120.5 9.5q-44 0 -69.5 -15.5t-25.5 -41.5q0 -38 92 -95
q22 -14 33 -22q139 -89 190.5 -160.5t51.5 -162.5q0 -158 -112.5 -239t-331.5 -81q-93 0 -184 12t-177 35zM193 -438v127q81 -22 145.5 -32.5t110.5 -10.5q51 0 75.5 18.5t24.5 56.5q0 37 -27 52.5t-92 15.5q-22 0 -35 -0.5t-24 -0.5v212h102v-90h15q116 0 175.5 -48.5
t59.5 -144.5q0 -99 -66 -148.5t-200 -49.5q-51 0 -118 11t-146 32z" />
    <glyph glyph-name="Cacute" unicode="&#x106;" horiz-adv-x="1341" 
d="M1286 1030q-82 28 -164 41.5t-161 13.5q-215 0 -335 -113.5t-120 -316.5q0 -189 106 -279.5t328 -90.5q80 0 159.5 10.5t164.5 32.5l-47 -318q-90 -20 -184.5 -30.5t-192.5 -10.5q-376 0 -573 173.5t-197 504.5q0 350 212.5 543.5t598.5 193.5q96 0 193 -10.5t196 -32.5z
M1190 1837l-316 -370h-141l197 370h260z" />
    <glyph glyph-name="cacute" unicode="&#x107;" horiz-adv-x="995" 
d="M874 6q-82 -18 -157.5 -27.5t-143.5 -9.5q-243 0 -377.5 136t-134.5 382q0 274 155.5 429t428.5 155q63 0 133.5 -10.5t149.5 -32.5l14 -305q-98 23 -140.5 30t-76.5 7q-124 0 -189 -66.5t-65 -193.5q0 -102 59.5 -157.5t169.5 -55.5q51 0 105 8.5t117 26.5zM920 1552
l-316 -370h-141l197 370h260z" />
    <glyph glyph-name="Ccaron" unicode="&#x10c;" horiz-adv-x="1341" 
d="M1286 1030q-82 28 -164 41.5t-161 13.5q-215 0 -335 -113.5t-120 -316.5q0 -189 106 -279.5t328 -90.5q80 0 159.5 10.5t164.5 32.5l-47 -318q-90 -20 -184.5 -30.5t-192.5 -10.5q-376 0 -573 173.5t-197 504.5q0 350 212.5 543.5t598.5 193.5q96 0 193 -10.5t196 -32.5z
M579 1837h142l174 -217l174 217h141l-196 -370h-238z" />
    <glyph glyph-name="ccaron" unicode="&#x10d;" horiz-adv-x="995" 
d="M874 6q-82 -18 -157.5 -27.5t-143.5 -9.5q-243 0 -377.5 136t-134.5 382q0 274 155.5 429t428.5 155q63 0 133.5 -10.5t149.5 -32.5l14 -305q-98 23 -140.5 30t-76.5 7q-124 0 -189 -66.5t-65 -193.5q0 -102 59.5 -157.5t169.5 -55.5q51 0 105 8.5t117 26.5zM309 1552
h142l174 -217l174 217h141l-196 -370h-238z" />
    <glyph glyph-name="dcroat" unicode="&#x111;" horiz-adv-x="1337" 
d="M837 719q-21 7 -44.5 10.5t-49.5 3.5q-123 0 -196.5 -79.5t-73.5 -213.5q0 -78 47 -131t117 -53q89 0 138.5 67t53.5 193zM801 66q-55 -49 -124 -72t-161 -23q-202 0 -323 120.5t-121 320.5q0 250 181.5 416.5t453.5 166.5q26 0 59 -3t82 -11l4 90h-143q-31 0 -67.5 -0.5
t-76.5 -1.5l13 182q40 -1 83.5 -1.5t124.5 -0.5h74q0 8 1 26.5t1 29.5q0 12 -0.5 24.5t-1.5 26.5h395q-3 -32 -4.5 -58t-1.5 -49h84q16 0 33 0.5t37 1.5l-13 -182q-27 1 -59 1.5t-94 0.5q-23 -350 -36.5 -608t-21.5 -463h-380z" />
    <glyph glyph-name="sfthyphen" unicode="&#xad;" horiz-adv-x="692" 
d="M594 385h-488l19 303h487z" />
    <glyph glyph-name="periodcentered" unicode="&#x2219;" horiz-adv-x="639" 
d="M131 678q0 79 54.5 133.5t133.5 54.5q80 0 134.5 -54.5t54.5 -133.5q0 -80 -54.5 -134.5t-134.5 -54.5q-79 0 -133.5 54.5t-54.5 134.5z" />
    <glyph glyph-name="euro" horiz-adv-x="1280" 
d="M1237 1055q-74 23 -146 36t-130 13q-44 0 -77.5 -6t-58.5 -19q-49 -25 -84.5 -71.5t-52.5 -108.5q74 1 192 1.5t259 0.5l-53 -159q-36 0 -202.5 1.5t-232.5 1.5q-4 -26 -6 -54.5t-2 -61.5q64 1 167.5 1.5t240.5 0.5l-54 -162q-19 1 -93 1.5t-251 0.5q15 -100 77.5 -160.5
t154.5 -60.5q87 0 176 16t166 45l-49 -303q-91 -17 -176.5 -27t-155.5 -10q-272 0 -429 127.5t-190 372.5q-98 0 -134.5 -0.5t-51.5 -1.5l10 162q2 0 59 -1t105 -1q0 29 1.5 58t4.5 56q-44 0 -101.5 -1t-62.5 -1l11 160q1 0 90.5 -1t95.5 -1q65 232 241 358.5t439 126.5
q62 0 137.5 -10t159.5 -31z" />
    <glyph glyph-name="euro" unicode="&#x20ac;" horiz-adv-x="1280" 
d="M1237 1055q-74 23 -146 36t-130 13q-44 0 -77.5 -6t-58.5 -19q-49 -25 -84.5 -71.5t-52.5 -108.5q74 1 192 1.5t259 0.5l-53 -159q-36 0 -202.5 1.5t-232.5 1.5q-4 -26 -6 -54.5t-2 -61.5q64 1 167.5 1.5t240.5 0.5l-54 -162q-19 1 -93 1.5t-251 0.5q15 -100 77.5 -160.5
t154.5 -60.5q87 0 176 16t166 45l-49 -303q-91 -17 -176.5 -27t-155.5 -10q-272 0 -429 127.5t-190 372.5q-98 0 -134.5 -0.5t-51.5 -1.5l10 162q2 0 59 -1t105 -1q0 29 1.5 58t4.5 56q-44 0 -101.5 -1t-62.5 -1l11 160q1 0 90.5 -1t95.5 -1q65 232 241 358.5t439 126.5
q62 0 137.5 -10t159.5 -31z" />
    </font>
</defs>
</svg>
